<svg width="66" height="66" viewBox="0 0 66 66" fill="none" xmlns="http://www.w3.org/2000/svg">
<g filter="url(#filter0_di_383_77)">
<rect x="13" y="9" width="40" height="40" rx="20" fill="#0F705D"/>
<rect x="12.5" y="8.5" width="41" height="41" rx="20.5" stroke="white"/>
</g>
<path d="M30.5964 14L31.7182 16.2436H42.9361L44.0579 14H30.5964ZM31.7182 17.3654V20.1699C31.7182 20.1699 31.7182 26.3397 37.3271 26.3397C42.9361 26.3397 42.9361 20.1699 42.9361 20.1699V17.3654H31.7182ZM22.7079 20.6994C22.1136 20.7088 21.5474 20.9537 21.1335 21.3802C20.7196 21.8067 20.4918 22.3801 20.5002 22.9744V31.9487C20.4999 32.2849 20.5752 32.6168 20.7204 32.9199C20.8657 33.2231 21.0772 33.4897 21.3393 33.7001C21.6014 33.9106 21.9075 34.0594 22.2348 34.1357C22.5622 34.2119 22.9025 34.2136 23.2307 34.1407L29.4746 32.7497V43.1667L42.6646 27.6186C42.3461 27.5203 42.0153 27.4674 41.682 27.4615H32.84L24.9874 29.1532V22.9744C24.9916 22.674 24.9356 22.3759 24.8224 22.0977C24.7093 21.8195 24.5415 21.5668 24.3289 21.3546C24.1163 21.1425 23.8633 20.9752 23.5849 20.8626C23.3064 20.75 23.0082 20.6945 22.7079 20.6994ZM44.6143 29.0567L32.6425 43.1667H45.1797V30.9593C45.1797 30.2548 44.9688 29.6042 44.6143 29.0567Z" fill="white"/>
<defs>
<filter id="filter0_di_383_77" x="0" y="0" width="66" height="66" filterUnits="userSpaceOnUse" color-interpolation-filters="sRGB">
<feFlood flood-opacity="0" result="BackgroundImageFix"/>
<feColorMatrix in="SourceAlpha" type="matrix" values="0 0 0 0 0 0 0 0 0 0 0 0 0 0 0 0 0 0 127 0" result="hardAlpha"/>
<feOffset dy="4"/>
<feGaussianBlur stdDeviation="6"/>
<feComposite in2="hardAlpha" operator="out"/>
<feColorMatrix type="matrix" values="0 0 0 0 0 0 0 0 0 0 0 0 0 0 0 0 0 0 0.5 0"/>
<feBlend mode="normal" in2="BackgroundImageFix" result="effect1_dropShadow_383_77"/>
<feBlend mode="normal" in="SourceGraphic" in2="effect1_dropShadow_383_77" result="shape"/>
<feColorMatrix in="SourceAlpha" type="matrix" values="0 0 0 0 0 0 0 0 0 0 0 0 0 0 0 0 0 0 127 0" result="hardAlpha"/>
<feOffset dy="-2"/>
<feGaussianBlur stdDeviation="1"/>
<feComposite in2="hardAlpha" operator="arithmetic" k2="-1" k3="1"/>
<feColorMatrix type="matrix" values="0 0 0 0 0 0 0 0 0 0 0 0 0 0 0 0 0 0 0.25 0"/>
<feBlend mode="normal" in2="shape" result="effect2_innerShadow_383_77"/>
</filter>
</defs>
</svg>
