<svg width="56" height="41" viewBox="0 0 56 41" fill="none" xmlns="http://www.w3.org/2000/svg">
<path d="M45.3265 1.08598L45.3264 1.08598C43.204 1.33698 41.0284 2.49178 39.7389 4.02261C38.7738 5.16832 38.0279 6.73053 37.7576 8.15983L36.775 7.97399L37.7576 8.15984C37.6916 8.5086 37.6552 9.13027 37.6654 9.81649C37.6756 10.4992 37.7304 11.1427 37.8103 11.5297C38.4702 14.7244 40.9809 17.3366 44.2555 18.186C45.3222 18.4627 47.1103 18.486 48.2081 18.2347L45.3265 1.08598ZM45.3265 1.08598C45.8581 1.02308 46.0944 1.00012 46.3167 1C46.5375 0.999886 46.7659 1.02231 47.2822 1.08461L47.2823 1.08462M45.3265 1.08598L47.2823 1.08462M47.2823 1.08462C50.9408 1.52584 53.8067 4.01086 54.7786 7.59642C54.9184 8.11214 55.0011 8.9067 55 9.75485C54.9989 10.6026 54.9141 11.4004 54.7724 11.9218M47.2823 1.08462L54.7724 11.9218M14.7546 14.3324C9.83707 14.8201 6.34607 18.9855 6.88979 23.3613C7.14983 25.4539 8.1574 27.5392 10.0023 29.6127C10.2322 29.8711 10.4452 30.1234 10.6049 30.3246C10.6833 30.4235 10.7574 30.5209 10.8161 30.6057C10.8441 30.6462 10.8802 30.7005 10.9133 30.7597C10.9294 30.7884 10.9549 30.8363 10.9791 30.8959L10.98 30.898C10.9948 30.9343 11.0569 31.0866 11.0569 31.2882C11.0569 31.7096 10.8087 31.9649 10.7005 32.0569C10.5852 32.1548 10.4744 32.2041 10.4277 32.2236C10.3257 32.2663 10.2338 32.2858 10.195 32.2937C10.1013 32.3127 9.99847 32.3244 9.91039 32.3327C9.72332 32.3504 9.46495 32.3648 9.15117 32.3771C8.51773 32.4019 7.59567 32.4201 6.42472 32.4306C4.63058 32.4468 3.7575 32.4568 3.26331 32.4908C3.02367 32.5073 2.92462 32.5267 2.87767 32.5392C2.84285 32.5484 2.81612 32.5578 2.7023 32.6139C1.95397 32.9825 1.37536 33.7385 1.12188 35.0631L14.7546 14.3324ZM14.7546 14.3324C14.7545 14.3324 14.7553 14.3323 14.7572 14.3322C14.7601 14.332 14.7655 14.3315 14.7739 14.331C14.7877 14.3301 14.806 14.3291 14.8294 14.3279C14.8765 14.3256 14.938 14.3233 15.0146 14.3209C15.1675 14.3161 15.3704 14.3115 15.6188 14.3072C16.1153 14.2986 16.783 14.2914 17.5754 14.2859C19.1594 14.275 21.2334 14.2711 23.4142 14.2768C27.3106 14.2871 29.2814 14.2936 30.3864 14.326C31.4337 14.3568 31.6191 14.4083 31.9239 14.493L31.9446 14.4987L31.9447 14.4988C32.3573 14.6132 32.9792 14.8558 33.2796 15.0138L33.2796 15.0138C33.5854 15.1746 33.9902 15.4815 34.3708 15.8515C34.759 16.2288 35.0317 16.5838 35.1404 16.8013L36.0339 16.355L35.1402 16.801C35.1363 16.7933 35.1369 16.7947 35.1429 16.8096C35.1512 16.8303 35.1699 16.8771 35.2016 16.9615C35.2479 17.0849 35.3093 17.2543 35.3847 17.4666C35.5353 17.8904 35.7368 18.4715 35.9751 19.1692C36.4514 20.5639 37.0719 22.4148 37.7212 24.3847C38.0102 25.2616 38.278 26.0739 38.5262 26.8267C40.1054 31.616 40.8897 33.9948 41.2784 35.2612C41.5067 36.0054 41.5796 36.307 41.6043 36.4671C41.6174 36.5514 41.6169 36.5682 41.6144 36.6457C41.6128 36.6959 41.6103 36.7716 41.6103 36.9076C41.6101 37.2403 41.5962 37.3961 41.5735 37.5072C41.5537 37.6039 41.5194 37.7068 41.4164 37.9172C41.0477 38.6709 40.1133 39.3634 38.697 39.6202L38.6969 39.6202C37.5776 39.8232 36.4504 39.3333 35.7052 38.1587L35.7052 38.1586C35.7058 38.1595 35.7044 38.1574 35.7009 38.1514C35.6983 38.147 35.6945 38.1404 35.6895 38.1314C35.6783 38.1115 35.6638 38.0849 35.6458 38.051C35.6098 37.9829 35.5643 37.8939 35.5101 37.7847C35.4017 37.5667 35.2646 37.2814 35.1077 36.9474C34.7943 36.28 34.408 35.4313 34.0256 34.5642C33.6392 33.6882 33.2749 32.8746 32.9989 32.269C32.8611 31.9668 32.7439 31.7133 32.6565 31.5288C32.6131 31.4372 32.5747 31.3577 32.5436 31.2959C32.5283 31.2656 32.5118 31.2333 32.4954 31.2033L32.4949 31.2024C32.4895 31.1923 32.4459 31.1106 32.3838 31.032C32.3836 31.0318 32.3834 31.0316 32.3832 31.0313L31.5993 31.6522M14.7546 14.3324L19.6378 31.2282L20.3959 31.8803M31.5993 31.6522C31.5117 31.5414 30.365 31.5187 26.0744 31.5427L20.6601 31.573L20.3959 31.8803M31.5993 31.6522C31.6602 31.7291 32.3403 33.2211 33.1106 34.9678C33.881 36.7144 34.6686 38.3914 34.8608 38.6943M31.5993 31.6522L34.8608 38.6943M20.3959 31.8803C20.1364 32.1819 20.1316 32.2261 20.1307 34.2895C20.1299 36.6713 20.0222 37.5421 19.625 38.3818M20.3959 31.8803L19.6377 31.2283M19.6377 31.2283L19.631 31.236C19.5655 31.312 19.4376 31.4604 19.3397 31.6693C19.2374 31.8874 19.1952 32.107 19.1724 32.3149C19.1314 32.6869 19.1312 33.279 19.1308 34.2549L19.1307 34.289C19.1299 36.6863 19.0104 37.3426 18.7211 37.9542M19.6377 31.2283L1.12188 35.0632C0.89389 36.2549 1.00167 37.2048 1.31154 37.8882C1.61153 38.5498 2.12617 39.0241 2.87375 39.2686L2.87378 39.2686C2.94872 39.2931 3.13268 39.3407 4.21481 39.3614C5.25806 39.3815 7.02514 39.3788 10.1626 39.3649C13.6001 39.3497 15.3494 39.3402 16.3072 39.3078C17.1738 39.2784 17.2733 39.2313 17.3449 39.1974C17.3516 39.1942 17.358 39.1911 17.3649 39.1882L17.7581 40.1076M19.6377 31.2283L19.625 38.3818M18.7211 37.9542C18.5144 38.3909 17.9414 38.9416 17.3649 39.1882L17.7581 40.1076M18.7211 37.9542L19.625 38.3818M18.7211 37.9542C18.7211 37.9542 18.7211 37.9541 18.7211 37.9541L19.625 38.3818M17.7581 40.1076C18.5318 39.7767 19.3019 39.0648 19.625 38.3818M17.7581 40.1076C17.2451 40.3271 17.0227 40.3345 10.167 40.3649C3.90174 40.3926 3.04331 40.3762 2.56289 40.219L19.625 38.3818M34.8608 38.6943C35.7967 40.1696 37.3078 40.8884 38.8754 40.6042C40.4966 40.3102 41.7642 39.4819 42.3147 38.3567C42.5573 37.8607 42.6098 37.6033 42.6103 36.9083C42.6103 36.7905 42.6151 36.7028 42.6154 36.615C42.6177 35.993 42.3949 35.3703 38.6709 24.0717C37.3706 20.1267 36.1844 16.6539 36.035 16.3544L34.8608 38.6943ZM54.7724 11.9218C53.9133 15.082 51.3912 17.5061 48.2082 18.2347L54.7724 11.9218Z" stroke="white" stroke-width="2"/>
</svg>
