<svg width="78" height="34" viewBox="0 0 78 34" fill="none" xmlns="http://www.w3.org/2000/svg">
<path fill-rule="evenodd" clip-rule="evenodd" d="M35.6759 1.0578C35.6759 1.08962 35.3299 2.27438 34.9071 3.69056C34.4842 5.10674 34.1382 6.39584 34.1382 6.55517C34.1382 6.78268 34.7702 6.84481 37.0845 6.84481H40.0307L40.153 6.03303C40.2203 5.58666 40.3338 4.53936 40.4054 3.70593C40.4768 2.8725 40.5867 1.92261 40.6493 1.5953L40.7633 1H38.2195C36.8206 1 35.6759 1.02598 35.6759 1.0578ZM18.6505 10.6859C18.4326 11.4903 18.2094 12.2703 18.1547 12.419C18.0757 12.6342 21.8599 12.6896 36.6119 12.6896H55.1686L54.6957 11.0119L54.2227 9.33426L36.6348 9.27885L19.0468 9.22343L18.6505 10.6859ZM0.808862 15.3473C0.868173 15.4992 2.94956 19.5177 5.43425 24.2768L9.95223 32.93L43.0237 32.9847C69.4097 33.0285 76.0954 32.9847 76.0956 32.7683C76.0956 32.6191 76.3427 30.1104 76.6446 27.1934C76.9464 24.2764 77.1935 21.6707 77.1935 21.4027L77.1937 20.9156L52.8652 20.9148L28.5366 20.9139L27.0404 17.9924L25.5445 15.0708H13.1227C3.13606 15.0708 0.722312 15.125 0.808862 15.3473ZM28.6464 15.1371C28.6464 15.175 29.0673 15.9792 29.5816 16.9243L30.5165 18.6427L48.6257 18.6981C58.5856 18.7286 66.8046 18.6799 66.8898 18.5898C66.9751 18.4998 66.8323 17.6956 66.5726 16.8026L66.1004 15.1791L47.3734 15.1237C37.0735 15.0933 28.6464 15.0994 28.6464 15.1371ZM7.11869 18.1015C6.21475 18.9923 6.9625 20.6992 8.25659 20.6992C8.85453 20.6992 9.75474 19.7346 9.75474 19.0938C9.75474 17.8802 8.0099 17.2232 7.11869 18.1015ZM29.7325 23.9125C28.7308 24.712 29.3408 26.544 30.6086 26.544C31.5863 26.544 32.1612 25.9829 32.1612 25.0287C32.1612 23.6662 30.8159 23.0479 29.7325 23.9125ZM36.351 24.0837C36.1005 24.3974 35.8956 24.8226 35.8956 25.0287C35.8956 25.2347 36.1005 25.6599 36.351 25.9736C37.2292 27.0741 38.971 26.4459 38.971 25.0287C38.971 23.6114 37.2292 22.9832 36.351 24.0837ZM43.1608 24.0837C42.9103 24.3974 42.7054 24.8226 42.7054 25.0287C42.7054 25.2347 42.9103 25.6599 43.1608 25.9736C44.039 27.0741 45.7808 26.4459 45.7808 25.0287C45.7808 23.6114 44.039 22.9832 43.1608 24.0837ZM50.2621 23.6789C49.9075 23.9123 49.5152 24.7193 49.5152 25.2153C49.5152 25.7452 50.5004 26.544 51.1542 26.544C51.7877 26.544 52.5906 25.682 52.5906 25.0014C52.5906 23.9411 51.1269 23.1098 50.2621 23.6789ZM56.7773 23.9335C55.8206 24.8763 56.504 26.544 57.8471 26.544C59.0955 26.544 59.773 25.1925 59.0228 24.198C58.4543 23.4443 57.3998 23.32 56.7773 23.9335ZM63.5741 23.9463C62.6298 24.8769 63.3246 26.544 64.6565 26.544C65.3511 26.544 66.2102 25.706 66.2102 25.0287C66.2102 24.8226 66.0052 24.3974 65.7548 24.0837C65.1979 23.3858 64.2063 23.3233 63.5741 23.9463ZM70.3839 23.9463C69.4396 24.8769 70.1344 26.544 71.4663 26.544C72.1609 26.544 73.02 25.706 73.02 25.0287C73.02 24.8226 72.815 24.3974 72.5646 24.0837C72.0077 23.3858 71.0162 23.3233 70.3839 23.9463Z" stroke="#205D86" stroke-width="1.5"/>
</svg>
