<svg width="60" height="73" viewBox="0 0 60 73" fill="none" xmlns="http://www.w3.org/2000/svg">
<path fill-rule="evenodd" clip-rule="evenodd" d="M27.0944 0.286882C22.5048 1.52937 19.4092 5.49392 19.4183 10.1182C19.4263 14.2075 21.5044 17.5439 25.1691 19.351C30.5479 22.0033 37.1626 19.2715 39.1237 13.5875C40.9845 8.19411 38.2075 2.43426 32.8383 0.551023C31.1449 -0.0429772 28.7241 -0.154306 27.0944 0.286882ZM27.5096 2.31785C26.0671 2.70631 25.0794 3.2936 23.9045 4.46154C22.6193 5.73894 21.9634 6.913 21.6169 8.55682C21.3408 9.86655 21.3404 10.5211 21.6149 11.8312C22.2508 14.8654 24.6702 17.3778 27.633 18.0805C31.0404 18.8885 34.4682 17.4987 36.4007 14.5256C38.0441 11.997 38.0463 8.41124 36.406 5.88063C35.2667 4.12307 33.4934 2.82488 31.5286 2.3102C30.4744 2.03405 28.5494 2.03763 27.5096 2.31785ZM3.50289 7.92936C2.07522 8.28956 1.04066 9.1791 0.389556 10.6062C0.0394178 11.3735 -4.28457e-05 11.6136 0.0592758 12.6153C0.136508 13.9191 0.574409 14.9423 1.38468 15.7118C1.84193 16.1463 7.73828 21.0752 14.9577 27.0582L17.9531 29.5403L17.9479 49.829C17.9445 63.547 17.9926 70.2109 18.0966 70.4061C18.3112 70.809 19.8263 71.5462 21.0201 71.8287C23.0381 72.3062 26.0147 71.8139 27.3695 70.7785L27.8823 70.3865L27.8885 60.2733L27.8947 50.1601L29.5266 50.1611L31.1584 50.1621L31.1522 60.2599C31.1452 71.6836 31.0038 70.4837 32.4423 71.2079C34.7237 72.3567 37.689 72.2853 40.1603 71.0225C40.5004 70.8485 40.8478 70.5771 40.9324 70.419C41.0356 70.2255 41.093 63.5039 41.1077 49.8432L41.1297 29.5546L42.8642 28.1306C49.6527 22.5574 57.9095 15.5942 58.2323 15.1702C59.1018 14.0281 59.3276 12.1787 58.778 10.7024C58.4168 9.73187 57.3668 8.65143 56.33 8.18315C55.3354 7.73395 53.6572 7.72458 52.6953 8.16291C52.3281 8.33027 50.6227 9.66278 48.9055 11.124C47.1883 12.5853 43.8951 15.3872 41.5872 17.3504C37.3946 20.9166 35.6409 22.1758 34.0196 22.784C32.2727 23.4395 31.4461 23.5897 29.6171 23.5844C27.502 23.5784 26.1899 23.2614 24.1266 22.2582C22.5832 21.5076 21.5643 20.7833 19.0871 18.6756C18.1085 17.843 15.0402 15.2295 12.2687 12.8679C9.06297 10.1361 6.95903 8.45017 6.48577 8.23392C5.53228 7.798 4.45813 7.68824 3.50289 7.92936ZM3.66375 10.0344C2.14414 10.5724 1.52343 12.5036 2.45176 13.8053C2.62741 14.0516 4.5726 15.75 6.77451 17.5793C16.99 26.0668 19.3911 28.0777 19.7063 28.4097L20.0452 28.7665L20.0327 49.0484L20.0202 69.3305L20.7247 69.6036C21.7056 69.984 24.1182 69.9861 25.0982 69.6075L25.8 69.3363L25.8465 58.9902L25.8929 48.6442L26.2433 48.3598C26.5618 48.1015 26.86 48.0758 29.5278 48.0774C32.1957 48.0791 32.4938 48.1052 32.812 48.3639L33.1621 48.6487L33.1958 58.991L33.2295 69.3332L33.8569 69.5883C34.9092 70.0161 36.7137 70.0562 37.953 69.6794L39.0093 69.3581L39.0218 49.0748C39.0316 33.0713 39.0734 28.7426 39.2198 28.5596C39.3889 28.3482 42.3859 25.8436 52.6897 17.3021C54.6898 15.6441 56.4509 14.1219 56.6034 13.9193C57.2451 13.0663 57.2104 11.6868 56.5249 10.8115C55.8891 9.99956 54.4676 9.62794 53.5518 10.0343C53.33 10.1328 52.1637 11.05 50.9602 12.0725C49.7567 13.095 46.465 15.8948 43.6454 18.2944C38.4431 22.7215 37.068 23.7215 35.0023 24.5793C30.7942 26.3268 26.1988 25.9568 22.1585 23.5452C20.5431 22.5809 19.7122 21.9121 12.7837 16.0006C9.15473 12.9042 5.91857 10.2466 5.59229 10.0946C4.88634 9.7658 4.46028 9.75244 3.66375 10.0344Z" fill="white"/>
</svg>
