<svg width="70" height="46" viewBox="0 0 70 46" fill="none" xmlns="http://www.w3.org/2000/svg">
<path d="M10.9333 0.199234C10.0533 0.492569 9.76 0.999233 5.01333 10.1192C1.70667 16.4659 0 20.0126 0 20.5459C0 21.8526 0.773333 22.5192 4.58667 24.4926C8.08 26.2792 8.21333 26.3059 9.17333 25.9859C9.73333 25.8259 10.24 25.5059 10.32 25.2926C10.5067 24.7859 11.8933 25.5059 12.1333 26.2792C12.24 26.5726 12.6667 27.2392 13.0933 27.7192C13.76 28.4659 13.84 28.7326 13.6267 29.1592C12.72 30.8126 14.5067 33.4526 16.5067 33.4526C16.88 33.4526 16.9867 33.5859 16.88 33.9326C16.5333 35.3459 18.4267 37.4526 20.08 37.4526C20.56 37.4526 20.8 37.5859 20.8 37.8526C20.8 39.2392 22.4 40.6526 23.9733 40.6526C24.5867 40.6526 24.8 40.8126 25.0133 41.4526C25.68 43.2926 27.76 44.2792 29.36 43.4792C30.2133 43.0526 30.24 43.0526 31.04 43.7992C32.72 45.3459 33.3867 45.7192 34.5067 45.7192C35.9467 45.7192 37.2533 44.8926 37.84 43.6126C38.2667 42.6259 38.32 42.5992 38.9333 42.9459C40.2933 43.6926 42.08 43.2126 43.1733 41.8259C43.4933 41.4259 43.7333 40.8392 43.7333 40.5192C43.7333 39.9859 43.84 39.9326 45.0133 40.0659C45.92 40.1459 46.5867 40.0392 47.1733 39.7459C48.1067 39.2392 49.0667 37.8792 49.0667 37.0259C49.0667 36.5192 49.1733 36.4659 50.2133 36.5726C53.52 36.9459 55.5733 32.9726 53.3067 30.5459C52.9867 30.2259 52.8 29.9059 52.8267 29.8792C52.88 29.8259 53.4667 29.4526 54.1333 28.9992C54.8 28.5459 55.8933 27.5592 56.5867 26.8126C57.92 25.3726 58.24 25.2126 58.5067 25.8526C58.5867 26.0926 59.0667 26.4392 59.5467 26.6526C60.4 26.9992 60.6667 26.9459 64.24 25.8259C68.1333 24.5992 68.9333 24.1192 69.2267 22.8926C69.4133 22.1459 68.0533 17.5859 64.4267 6.91924C62.56 1.4259 62.5067 1.31923 61.5467 0.7859L60.56 0.252567L56.72 1.53257C52.4267 2.9459 51.68 3.47923 51.6267 5.07924C51.5733 6.01257 51.4933 6.09257 50.4 6.41257C48.7467 6.91924 47.8133 6.8659 44 6.1459C42.16 5.79924 39.4933 5.37257 38.0533 5.1859C34.5333 4.75924 33.44 5.05257 31.0667 6.9459L29.2267 8.3859H26.5867C24.16 8.3859 23.7333 8.3059 22.08 7.55923C20.2933 6.73257 20.2667 6.67923 20.2667 5.69257C20.2667 4.25257 19.5733 3.63923 16 1.77257C12.32 -0.147434 12.1333 -0.200768 10.9333 0.199234ZM15.36 3.21257C17.8667 4.5459 18.6667 5.07924 18.6667 5.47923C18.6667 6.1459 9.73333 23.5059 9.01333 24.2526C8.50667 24.7859 8.50667 24.7859 5.12 22.9992C2.74667 21.7726 1.70667 21.0792 1.65333 20.7059C1.57333 20.1992 10.3467 2.8659 11.1467 1.9059C11.36 1.6659 11.6533 1.45257 11.7867 1.45257C11.92 1.45257 13.52 2.25257 15.36 3.21257ZM61.1733 2.57257C61.36 2.91924 62.96 7.47923 64.6933 12.7326C67.1467 20.1192 67.7867 22.3592 67.5733 22.7059C67.1733 23.3192 60.6133 25.5059 60.0267 25.2126C59.4133 24.8659 52.9067 5.21257 53.2533 4.67923C53.4667 4.33257 59.6 2.0659 60.4533 2.01257C60.64 1.9859 60.96 2.25257 61.1733 2.57257ZM43.3333 7.61257C48.32 8.51923 49.1467 8.5459 50.88 7.9059L52.16 7.39923L54.9333 15.6926C57.04 22.0126 57.6 23.9859 57.3067 24.0926C57.12 24.1459 56.2667 24.8926 55.4667 25.7192C54.6667 26.5459 53.44 27.6126 52.7733 28.0659L51.5467 28.8926L43.0667 21.5592C38.3733 17.5326 34.2667 14.1726 33.8933 14.0659C33.0933 13.8792 31.6533 14.5992 31.0667 15.5059C30.8267 15.8526 30.5067 16.8659 30.3733 17.7192C29.8667 20.9726 28.0533 23.4526 26.3467 23.2659L25.5467 23.1859V18.5459C25.5733 14.0926 25.6 13.9059 26.1867 13.2392C27.52 11.7992 32.72 7.47923 33.7333 6.99923C35.0933 6.35923 37.2533 6.49257 43.3333 7.61257ZM25.12 9.8259C26.4267 9.85257 27.4667 9.9059 27.44 9.9859C27.44 10.0659 26.9067 10.5459 26.2667 11.0526C24.0533 12.8126 24 12.9726 24 18.7059C24 23.5059 24.0267 23.7992 24.56 24.2792C24.96 24.6259 25.52 24.7859 26.4 24.7859C29.0133 24.7859 31.0133 22.4126 31.8667 18.4126C32.24 16.5192 32.9867 15.3992 33.6533 15.6392C34.5067 15.9859 52.32 31.6926 52.56 32.3326C52.88 33.1592 52.4533 34.4126 51.7067 34.7859C50.4 35.5059 49.84 35.1859 44.9333 30.9192C42 28.4126 39.92 26.7859 39.5733 26.7859C38.9867 26.7859 38.5333 27.4259 38.8 27.8526C38.88 27.9859 40.72 29.6126 42.88 31.4792C45.04 33.3459 46.96 35.0526 47.1467 35.2926C47.6533 35.9059 47.5467 37.3726 46.9333 37.9859C46.6133 38.3059 46.0533 38.5192 45.4667 38.5192C44.6667 38.5192 44 38.0392 40.2667 34.7859C37.8933 32.7326 35.7867 31.0526 35.6 31.0526C35.3867 31.0526 35.0933 31.2926 34.9333 31.5592C34.6133 32.1992 34.7467 32.3592 38.7467 35.8526C40.48 37.3459 42.0267 38.8392 42.16 39.1592C42.7467 40.4392 41.36 41.9859 39.9467 41.6392C39.6 41.5326 37.8133 40.1459 35.92 38.5192C32.5067 35.5326 31.68 35.1326 31.52 36.2792C31.4667 36.7059 31.9733 37.3192 33.4933 38.6792C36.5333 41.3726 36.5333 41.3726 36.5333 42.2526C36.5333 43.2926 35.7067 44.1192 34.64 44.1192C34.08 44.1192 33.44 43.7992 32.5333 43.0259C31.2533 41.9326 31.2267 41.9059 31.6 41.1592C32.24 39.9592 32.1067 38.9192 31.1733 37.8526C30.72 37.3459 30.0533 36.8392 29.7067 36.7592C29.0933 36.5992 29.0667 36.5459 29.4667 35.9592C29.9467 35.2126 29.9733 33.5592 29.4933 32.7059C29.0933 31.9592 27.7867 31.0526 27.1467 31.0526C26.7733 31.0526 26.6667 30.8126 26.6667 29.9859C26.6667 29.1326 26.48 28.7059 25.76 27.9059C24.9333 27.0259 24.72 26.9192 23.4933 26.9192C22.5867 26.9192 22 27.0526 21.7067 27.3726C21.28 27.7992 21.2 27.7459 20.2667 26.7059C19.3333 25.6659 19.1733 25.5859 17.8667 25.5859C16.64 25.5859 16.4 25.6926 15.7067 26.4392C15.28 26.9192 14.88 27.3192 14.8 27.3192C14.72 27.3192 14.24 26.6526 13.7067 25.8259C13.2 25.0259 12.48 24.2259 12.1067 24.0659C11.76 23.9059 11.4667 23.6659 11.4667 23.5326C11.4667 23.3726 15.8667 14.7326 19.2267 8.33257C19.44 7.93257 19.6533 7.9859 21.1467 8.83923C22.6933 9.7459 22.96 9.8259 25.12 9.8259ZM19.1733 27.7459C19.4933 28.1459 19.7333 28.5992 19.7333 28.7859C19.7333 28.9726 19.2533 29.7192 18.64 30.4926C17.4133 32.0126 16.4267 32.2792 15.4667 31.3192C14.6667 30.5192 14.8 29.8259 16.0533 28.3592C17.36 26.8126 18.2933 26.6259 19.1733 27.7459ZM24.5867 28.8392C25.52 29.6926 25.2 30.6526 23.04 33.3192C21.3067 35.4792 20.88 35.8526 20.24 35.8526C19.36 35.8526 18.4 35.0259 18.4 34.2792C18.4 33.7459 19.44 32.2526 21.52 29.7726C22.8 28.2792 23.6533 28.0126 24.5867 28.8392ZM27.8667 33.1859C28.6933 34.0926 28.4267 34.8926 26.6933 36.9992C24.8533 39.2126 24.2133 39.5592 23.2 38.8126C21.9733 37.9326 22.1867 37.0259 24.1333 34.7059C26.0533 32.4659 26.9067 32.1192 27.8667 33.1859ZM29.7067 38.5459C30.64 39.2659 30.5867 40.1459 29.5733 41.3192C28.6133 42.3859 28.08 42.4659 27.0933 41.6926C26.1867 40.9726 26.2133 40.1992 27.2267 38.9726C28.16 37.8526 28.6933 37.7459 29.7067 38.5459Z" fill="white"/>
</svg>
