<svg width="52" height="35" viewBox="0 0 52 35" fill="none" xmlns="http://www.w3.org/2000/svg">
<path d="M8.2 0.259899C7.54 0.4799 7.32 0.859901 3.76 7.6999C1.28 12.4599 0 15.1199 0 15.5199C0 16.4999 0.58 16.9999 3.44 18.4799C6.06 19.8199 6.16 19.8399 6.88 19.5999C7.3 19.4799 7.68 19.2399 7.74 19.0799C7.88 18.6999 8.92 19.2399 9.1 19.8199C9.18 20.0399 9.5 20.5399 9.82 20.8999C10.32 21.4599 10.38 21.6599 10.22 21.9799C9.54 23.2199 10.88 25.1999 12.38 25.1999C12.66 25.1999 12.74 25.2999 12.66 25.5599C12.4 26.6199 13.82 28.1999 15.06 28.1999C15.42 28.1999 15.6 28.2999 15.6 28.4999C15.6 29.5399 16.8 30.5999 17.98 30.5999C18.44 30.5999 18.6 30.7199 18.76 31.1999C19.26 32.5799 20.82 33.3199 22.02 32.7199C22.66 32.3999 22.68 32.3999 23.28 32.9599C24.54 34.1199 25.04 34.3999 25.88 34.3999C26.96 34.3999 27.94 33.7799 28.38 32.8199C28.7 32.0799 28.74 32.0599 29.2 32.3199C30.22 32.8799 31.56 32.5199 32.38 31.4799C32.62 31.1799 32.8 30.7399 32.8 30.4999C32.8 30.0999 32.88 30.0599 33.76 30.1599C34.44 30.2199 34.94 30.1399 35.38 29.9199C36.08 29.5399 36.8 28.5199 36.8 27.8799C36.8 27.4999 36.88 27.4599 37.66 27.5399C40.14 27.8199 41.68 24.8399 39.98 23.0199C39.74 22.7799 39.6 22.5399 39.62 22.5199C39.66 22.4799 40.1 22.1999 40.6 21.8599C41.1 21.5199 41.92 20.7799 42.44 20.2199C43.44 19.1399 43.68 19.0199 43.88 19.4999C43.94 19.6799 44.3 19.9399 44.66 20.0999C45.3 20.3599 45.5 20.3199 48.18 19.4799C51.1 18.5599 51.7 18.1999 51.92 17.2799C52.06 16.7199 51.04 13.2999 48.32 5.2999C46.92 1.1799 46.88 1.0999 46.16 0.699902L45.42 0.2999L42.54 1.2599C39.32 2.3199 38.76 2.7199 38.72 3.9199C38.68 4.6199 38.62 4.6799 37.8 4.9199C36.56 5.2999 35.86 5.2599 33 4.7199C31.62 4.4599 29.62 4.1399 28.54 3.9999C25.9 3.6799 25.08 3.8999 23.3 5.3199L21.92 6.3999H19.94C18.12 6.3999 17.8 6.3399 16.56 5.7799C15.22 5.1599 15.2 5.1199 15.2 4.3799C15.2 3.2999 14.68 2.8399 12 1.4399C9.24 -9.91821e-05 9.1 -0.0401001 8.2 0.259899ZM11.52 2.5199C13.4 3.5199 14 3.9199 14 4.2199C14 4.7199 7.3 17.7399 6.76 18.2999C6.38 18.6999 6.38 18.6999 3.84 17.3599C2.06 16.4399 1.28 15.9199 1.24 15.6399C1.18 15.2599 7.76 2.2599 8.36 1.5399C8.52 1.3599 8.74 1.1999 8.84 1.1999C8.94 1.1999 10.14 1.7999 11.52 2.5199ZM45.88 2.0399C46.02 2.2999 47.22 5.7199 48.52 9.6599C50.36 15.1999 50.84 16.8799 50.68 17.1399C50.38 17.5999 45.46 19.2399 45.02 19.0199C44.56 18.7599 39.68 4.0199 39.94 3.6199C40.1 3.3599 44.7 1.6599 45.34 1.6199C45.48 1.5999 45.72 1.7999 45.88 2.0399ZM32.5 5.8199C36.24 6.4999 36.86 6.5199 38.16 6.0399L39.12 5.6599L41.2 11.8799C42.78 16.6199 43.2 18.0999 42.98 18.1799C42.84 18.2199 42.2 18.7799 41.6 19.3999C41 20.0199 40.08 20.8199 39.58 21.1599L38.66 21.7799L32.3 16.2799C28.78 13.2599 25.7 10.7399 25.42 10.6599C24.82 10.5199 23.74 11.0599 23.3 11.7399C23.12 11.9999 22.88 12.7599 22.78 13.3999C22.4 15.8399 21.04 17.6999 19.76 17.5599L19.16 17.4999V14.0199C19.18 10.6799 19.2 10.5399 19.64 10.0399C20.64 8.9599 24.54 5.7199 25.3 5.3599C26.32 4.8799 27.94 4.9799 32.5 5.8199ZM18.84 7.4799C19.82 7.4999 20.6 7.5399 20.58 7.5999C20.58 7.6599 20.18 8.0199 19.7 8.3999C18.04 9.7199 18 9.8399 18 14.1399C18 17.7399 18.02 17.9599 18.42 18.3199C18.72 18.5799 19.14 18.6999 19.8 18.6999C21.76 18.6999 23.26 16.9199 23.9 13.9199C24.18 12.4999 24.74 11.6599 25.24 11.8399C25.88 12.0999 39.24 23.8799 39.42 24.3599C39.66 24.9799 39.34 25.9199 38.78 26.1999C37.8 26.7399 37.38 26.4999 33.7 23.2999C31.5 21.4199 29.94 20.1999 29.68 20.1999C29.24 20.1999 28.9 20.6799 29.1 20.9999C29.16 21.0999 30.54 22.3199 32.16 23.7199C33.78 25.1199 35.22 26.3999 35.36 26.5799C35.74 27.0399 35.66 28.1399 35.2 28.5999C34.96 28.8399 34.54 28.9999 34.1 28.9999C33.5 28.9999 33 28.6399 30.2 26.1999C28.42 24.6599 26.84 23.3999 26.7 23.3999C26.54 23.3999 26.32 23.5799 26.2 23.7799C25.96 24.2599 26.06 24.3799 29.06 26.9999C30.36 28.1199 31.52 29.2399 31.62 29.4799C32.06 30.4399 31.02 31.5999 29.96 31.3399C29.7 31.2599 28.36 30.2199 26.94 28.9999C24.38 26.7599 23.76 26.4599 23.64 27.3199C23.6 27.6399 23.98 28.0999 25.12 29.1199C27.4 31.1399 27.4 31.1399 27.4 31.7999C27.4 32.5799 26.78 33.1999 25.98 33.1999C25.56 33.1999 25.08 32.9599 24.4 32.3799C23.44 31.5599 23.42 31.5399 23.7 30.9799C24.18 30.0799 24.08 29.2999 23.38 28.4999C23.04 28.1199 22.54 27.7399 22.28 27.6799C21.82 27.5599 21.8 27.5199 22.1 27.0799C22.46 26.5199 22.48 25.2799 22.12 24.6399C21.82 24.0799 20.84 23.3999 20.36 23.3999C20.08 23.3999 20 23.2199 20 22.5999C20 21.9599 19.86 21.6399 19.32 21.0399C18.7 20.3799 18.54 20.2999 17.62 20.2999C16.94 20.2999 16.5 20.3999 16.28 20.6399C15.96 20.9599 15.9 20.9199 15.2 20.1399C14.5 19.3599 14.38 19.2999 13.4 19.2999C12.48 19.2999 12.3 19.3799 11.78 19.9399C11.46 20.2999 11.16 20.5999 11.1 20.5999C11.04 20.5999 10.68 20.0999 10.28 19.4799C9.9 18.8799 9.36 18.2799 9.08 18.1599C8.82 18.0399 8.6 17.8599 8.6 17.7599C8.6 17.6399 11.9 11.1599 14.42 6.3599C14.58 6.0599 14.74 6.0999 15.86 6.7399C17.02 7.4199 17.22 7.4799 18.84 7.4799ZM14.38 20.9199C14.62 21.2199 14.8 21.5599 14.8 21.6999C14.8 21.8399 14.44 22.3999 13.98 22.9799C13.06 24.1199 12.32 24.3199 11.6 23.5999C11 22.9999 11.1 22.4799 12.04 21.3799C13.02 20.2199 13.72 20.0799 14.38 20.9199ZM18.44 21.7399C19.14 22.3799 18.9 23.0999 17.28 25.0999C15.98 26.7199 15.66 26.9999 15.18 26.9999C14.52 26.9999 13.8 26.3799 13.8 25.8199C13.8 25.4199 14.58 24.2999 16.14 22.4399C17.1 21.3199 17.74 21.1199 18.44 21.7399ZM20.9 24.9999C21.52 25.6799 21.32 26.2799 20.02 27.8599C18.64 29.5199 18.16 29.7799 17.4 29.2199C16.48 28.5599 16.64 27.8799 18.1 26.1399C19.54 24.4599 20.18 24.1999 20.9 24.9999ZM22.28 29.0199C22.98 29.5599 22.94 30.2199 22.18 31.0999C21.46 31.8999 21.06 31.9599 20.32 31.3799C19.64 30.8399 19.66 30.2599 20.42 29.3399C21.12 28.4999 21.52 28.4199 22.28 29.0199Z" fill="#78C8B8"/>
</svg>
