<svg width="57" height="48" viewBox="0 0 57 48" fill="none" xmlns="http://www.w3.org/2000/svg">
<path d="M22.3464 5.28055C10.1864 8.53389 2.31978 10.7472 1.89311 11.0672C0.933112 11.7872 0.106445 13.3339 0.106445 14.4806C0.106445 15.8939 6.42645 39.1739 7.06645 40.0272C7.41311 40.5339 7.57311 41.2006 7.57311 42.2939C7.57311 44.2139 8.26645 45.8139 9.46645 46.6672L10.3731 47.3072L31.7064 47.3872C43.4398 47.4139 53.3064 47.3872 53.6531 47.3072C53.9731 47.2272 54.7198 46.7472 55.3064 46.2139C56.0798 45.4939 56.3998 44.9606 56.6131 43.9206C56.9865 42.2139 56.9865 20.0806 56.6131 18.3472C56.3198 17.0406 55.1465 15.5739 54.0265 15.1472C53.6798 15.0139 52.8265 14.9072 52.1064 14.9072H50.7998L50.5065 13.7606C48.8265 7.41389 47.4398 2.64055 47.0398 1.97388C46.3198 0.827217 44.6931 -0.0261154 43.2798 0.000553131C42.6398 0.000553131 33.2264 2.37389 22.3464 5.28055ZM45.1998 1.65388C46.0798 2.24055 46.7464 3.52055 47.1465 5.44055L47.3331 6.26722L43.9198 7.14722C42.0531 7.65388 34.9331 9.54722 28.1064 11.3605C17.8398 14.1072 15.2531 14.7206 12.9864 14.8806C10.6131 15.0406 10.1864 15.1472 9.33311 15.8139C8.69311 16.2939 7.25311 16.8539 5.17311 17.4139L1.97311 18.2939L1.70645 17.3339C0.906445 14.5339 1.14645 12.9606 2.47978 12.0006C2.85311 11.7339 6.82645 10.5339 11.3064 9.36055C21.6264 6.61388 35.9464 2.82722 39.5731 1.84055C43.0664 0.907219 44.0265 0.853886 45.1998 1.65388ZM48.2131 9.36055C48.7464 11.5472 48.7464 11.7072 48.2398 11.7072C48.0265 11.7072 45.1731 12.4272 41.8931 13.3072L35.9198 14.9072H27.5731C22.9864 14.9072 19.2798 14.8539 19.3598 14.7739C19.4398 14.6939 20.6931 14.3472 22.1331 13.9739C26.2398 12.9872 47.1465 7.41389 47.2798 7.28055C47.5198 7.04055 47.7864 7.62722 48.2131 9.36055ZM49.3598 13.6272C49.5198 14.2672 49.6264 14.8006 49.5998 14.8539C49.5465 14.8806 47.4931 14.8806 45.0131 14.8539C40.8531 14.7739 40.6131 14.7472 41.7064 14.4272C45.0664 13.4939 48.5331 12.5606 48.7731 12.5339C48.9331 12.5339 49.1998 13.0139 49.3598 13.6272ZM53.9731 16.3739C55.5731 17.2006 55.5731 17.0939 55.5731 31.1739C55.5731 42.1072 55.5198 44.1072 55.1731 44.7739C54.3198 46.4272 55.2531 46.3739 32.1864 46.3739C11.5731 46.3739 11.1464 46.3739 10.2931 45.8406C8.63978 44.8272 8.63978 44.7472 8.63978 31.1739C8.63978 17.8139 8.66645 17.6806 10.1331 16.5606L10.9064 16.0006L32.0531 15.9739C50.4531 15.9739 53.3064 16.0272 53.9731 16.3739ZM7.62645 20.0272C7.57311 21.2539 7.43978 22.3206 7.33311 22.4006C7.14645 22.5872 3.54645 23.4939 3.43978 23.3872C3.33311 23.2539 2.23978 19.3339 2.31978 19.3072C2.47978 19.2272 7.19978 17.8939 7.46645 17.8672C7.65311 17.8406 7.70645 18.5606 7.62645 20.0272ZM7.62645 31.2539C7.70645 38.4806 7.57311 40.2406 7.17311 37.8672C7.09311 37.2806 6.23978 34.0539 5.33311 30.6672L3.65311 24.5072L4.34645 24.3472C4.71978 24.2406 5.57311 24.0272 6.23978 23.8406C6.90645 23.6539 7.46645 23.5206 7.49311 23.5472C7.51978 23.5739 7.59978 27.0406 7.62645 31.2539Z" fill="white"/>
<path d="M13.1729 23.9738C13.1729 24.5071 13.2795 24.5071 32.1862 24.4538C48.8529 24.3738 51.1729 24.3204 51.1729 23.9738C51.1729 23.6271 48.8529 23.5738 32.1862 23.4938C13.2795 23.4404 13.1729 23.4404 13.1729 23.9738Z" fill="white"/>
<path d="M15.4933 27.6273C15.3866 27.7073 15.3066 27.9473 15.3066 28.1607C15.3066 28.454 17.92 28.5073 29.8666 28.5073C43.5733 28.5073 44.4 28.4807 44.32 28.0273C44.24 27.6007 43.3066 27.574 29.9466 27.494C22.1066 27.4673 15.5733 27.5207 15.4933 27.6273Z" fill="white"/>
<path d="M15.3066 31.7072C15.3066 32.2405 15.44 32.2405 29.76 32.1872C43.3066 32.1072 44.24 32.0805 44.32 31.6272C44.4 31.2005 43.5733 31.1738 29.8666 31.1738C15.4666 31.1738 15.3066 31.1738 15.3066 31.7072Z" fill="white"/>
<path d="M40.7195 36.7472C37.5195 38.7472 39.2529 43.5472 43.0129 43.0672C44.5329 42.8805 44.7462 42.8805 46.2662 43.0672C47.7862 43.2538 48.9595 42.7205 49.7062 41.4938C51.2529 38.9872 49.2262 35.9738 46.2662 36.3472C44.7729 36.5338 44.6129 36.5338 42.9062 36.3472C41.8662 36.2405 41.3862 36.3472 40.7195 36.7472ZM44.0529 37.7338C44.5862 38.1072 44.6929 38.1072 45.2262 37.7338C45.5462 37.4938 46.2662 37.3072 46.7996 37.3072C48.0262 37.3072 49.1729 38.5072 49.1729 39.7605C49.1729 41.5472 46.7462 42.7472 45.2262 41.6805C44.6929 41.3072 44.5862 41.3072 44.0529 41.6805C42.5329 42.7472 40.1062 41.5472 40.1062 39.7072C40.1062 37.8672 42.5329 36.6672 44.0529 37.7338Z" fill="white"/>
<path d="M15.3066 41.0406C15.3066 41.5473 15.4666 41.574 20.4 41.574C25.0933 41.574 25.4666 41.5473 25.3866 41.094C25.3066 40.694 24.8266 40.6406 20.2933 40.5606C15.44 40.5073 15.3066 40.5073 15.3066 41.0406Z" fill="white"/>
</svg>
