<svg width="49" height="40" viewBox="0 0 49 40" fill="none" xmlns="http://www.w3.org/2000/svg">
<path d="M19.3071 4.45647C9.04491 7.20205 2.40599 9.06995 2.04591 9.34001C1.23574 9.94764 0.538086 11.2529 0.538086 12.2206C0.538086 13.4134 5.87173 33.0601 6.41184 33.7802C6.7044 34.2078 6.83943 34.7704 6.83943 35.6931C6.83943 37.3135 7.42456 38.6638 8.43728 39.3839L9.20244 39.924L27.2063 39.9916C37.1084 40.0141 45.4352 39.9916 45.7278 39.924C45.9978 39.8565 46.6279 39.4514 47.1231 39.0013C47.7757 38.3937 48.0457 37.9436 48.2258 37.0659C48.5409 35.6256 48.5409 16.9466 48.2258 15.4838C47.9782 14.3811 46.988 13.1433 46.0428 12.7832C45.7503 12.6707 45.0301 12.5807 44.4225 12.5807H43.3197L43.0722 11.613C41.6544 6.25685 40.4841 2.22849 40.1466 1.66587C39.5389 0.698162 38.1661 -0.0219917 36.9734 0.000511169C36.4333 0.000511169 28.4891 2.00344 19.3071 4.45647ZM38.5937 1.39581C39.3364 1.89092 39.899 2.97115 40.2366 4.5915L40.3941 5.28914L37.5135 6.0318C35.9382 6.45939 29.9294 8.05724 24.1681 9.58756C15.5038 11.9056 13.3208 12.4232 11.4079 12.5582C9.40498 12.6932 9.04491 12.7832 8.32475 13.3459C7.78464 13.751 6.56938 14.2236 4.814 14.6962L2.11342 15.4388L1.88837 14.6286C1.21323 12.2656 1.41577 10.9379 2.54101 10.1277C2.85608 9.90263 6.2093 8.88991 9.99011 7.8997C18.6995 5.58171 30.7846 2.38602 33.8452 1.55334C36.7933 0.765675 37.6035 0.720665 38.5937 1.39581ZM41.1368 7.8997C41.5869 9.7451 41.5869 9.88013 41.1593 9.88013C40.9792 9.88013 38.5712 10.4878 35.8031 11.2304L30.7621 12.5807H23.718C19.8472 12.5807 16.719 12.5357 16.7866 12.4682C16.8541 12.4007 17.9118 12.1081 19.1271 11.793C22.5928 10.9604 40.2366 6.25685 40.3491 6.14433C40.5516 5.94178 40.7767 6.43689 41.1368 7.8997ZM42.1045 11.5005C42.2395 12.0406 42.3295 12.4907 42.307 12.5357C42.262 12.5582 40.5291 12.5582 38.4362 12.5357C34.9254 12.4682 34.7229 12.4457 35.6456 12.1756C38.4812 11.3879 41.4068 10.6003 41.6094 10.5778C41.7444 10.5778 41.9694 10.9829 42.1045 11.5005ZM45.9978 13.8185C47.3481 14.5161 47.3481 14.4261 47.3481 26.3086C47.3481 35.5356 47.3031 37.2235 47.0105 37.7861C46.2904 39.1814 47.078 39.1364 27.6114 39.1364C10.2152 39.1364 9.85508 39.1364 9.13492 38.6863C7.73963 37.8311 7.73963 37.7636 7.73963 26.3086C7.73963 15.0337 7.76213 14.9212 8.9999 13.976L9.65254 13.5034L27.4989 13.4809C43.0272 13.4809 45.4352 13.5259 45.9978 13.8185ZM6.88444 16.9016C6.83943 17.9368 6.72691 18.837 6.63689 18.9046C6.47936 19.0621 3.44121 19.8273 3.35119 19.7372C3.26117 19.6247 2.33847 16.3165 2.40599 16.294C2.54101 16.2265 6.52437 15.1012 6.74941 15.0787C6.90695 15.0562 6.95196 15.6639 6.88444 16.9016ZM6.88444 26.3762C6.95196 32.475 6.83943 33.9603 6.50186 31.9573C6.43435 31.4622 5.71419 28.7392 4.94903 25.881L3.53123 20.6824L4.11635 20.5474C4.43142 20.4574 5.15157 20.2773 5.71419 20.1198C6.27681 19.9623 6.74941 19.8498 6.77192 19.8723C6.79442 19.8948 6.86194 22.8204 6.88444 26.3762Z" fill="#CB4335"/>
<path d="M11.5654 20.2324C11.5654 20.6825 11.6554 20.6825 27.6114 20.6375C41.6769 20.57 43.6348 20.5249 43.6348 20.2324C43.6348 19.9398 41.6769 19.8948 27.6114 19.8273C11.6554 19.7823 11.5654 19.7823 11.5654 20.2324Z" fill="#CB4335"/>
<path d="M13.5237 23.3152C13.4337 23.3827 13.3662 23.5853 13.3662 23.7653C13.3662 24.0129 15.5717 24.0579 25.6538 24.0579C37.2213 24.0579 37.919 24.0354 37.8514 23.6528C37.7839 23.2927 36.9963 23.2702 25.7214 23.2027C19.1049 23.1802 13.5913 23.2252 13.5237 23.3152Z" fill="#CB4335"/>
<path d="M13.3662 26.7585C13.3662 27.2086 13.4787 27.2086 25.5638 27.1636C36.9963 27.0961 37.7839 27.0736 37.8514 26.691C37.919 26.3309 37.2213 26.3084 25.6538 26.3084C13.5012 26.3084 13.3662 26.3084 13.3662 26.7585Z" fill="#CB4335"/>
<path d="M34.8128 31.0126C32.1123 32.7005 33.5751 36.7514 36.7482 36.3463C38.031 36.1887 38.2111 36.1887 39.4938 36.3463C40.7766 36.5038 41.7668 36.0537 42.397 35.0185C43.7022 32.903 41.9919 30.36 39.4938 30.6751C38.2336 30.8326 38.0985 30.8326 36.6582 30.6751C35.7805 30.585 35.3755 30.6751 34.8128 31.0126ZM37.6259 31.8453C38.076 32.1604 38.1661 32.1604 38.6161 31.8453C38.8862 31.6428 39.4938 31.4852 39.9439 31.4852C40.9792 31.4852 41.9469 32.4979 41.9469 33.5557C41.9469 35.0635 39.8989 36.0762 38.6161 35.176C38.1661 34.861 38.076 34.861 37.6259 35.176C36.3432 36.0762 34.2952 35.0635 34.2952 33.5107C34.2952 31.9578 36.3432 30.9451 37.6259 31.8453Z" fill="#CB4335"/>
<path d="M13.3662 34.6356C13.3662 35.0632 13.5012 35.0857 17.6646 35.0857C21.6255 35.0857 21.9405 35.0632 21.873 34.6806C21.8055 34.343 21.4004 34.298 17.5746 34.2305C13.4787 34.1855 13.3662 34.1855 13.3662 34.6356Z" fill="#CB4335"/>
</svg>
