<svg width="42" height="81" viewBox="0 0 42 81" fill="none" xmlns="http://www.w3.org/2000/svg">
<path d="M15.5507 0.565324C13.807 1.17878 12.4474 2.29833 11.4399 3.89239C10.9361 4.68942 10.5275 5.45414 10.528 5.54944C10.5286 5.64473 12.9715 5.09084 15.9849 4.31134C22.202 2.68774 23.0914 2.68269 24.6893 4.35727C26.0635 5.81075 26.2941 7.27071 25.5104 9.11763C24.8518 10.6144 24.0291 11.1909 21.4597 11.8408C20.1591 12.1658 20.1593 12.1976 20.5769 13.0212C20.8338 13.4962 20.9634 13.9402 20.9004 14.0359C20.8691 14.1313 19.6942 14.2015 18.3597 14.1456C16.3579 14.0616 15.9761 13.9685 16.101 13.5866C16.2261 13.2364 16.1303 13.1417 15.718 13.2711C15.4327 13.368 14.5763 13.5952 13.815 13.7902L12.451 14.1473L13.1849 14.715C16.6629 17.4272 21.2039 17.1473 24.236 14.0487C28.4054 9.86361 27.065 3.16842 21.6192 0.753268C19.9631 0.000258053 17.2942 -0.0799029 15.5507 0.565324ZM19.7185 1.68529C20.2605 2.03165 20.2921 1.9997 17.0247 2.8124C13.3767 3.72257 13.5353 3.6899 14.1351 3.0194C15.3662 1.64644 18.4751 0.89817 19.7185 1.68529Z" fill="white"/>
<path d="M6.22759 3.35055C6.13319 3.50992 6.57989 3.85682 7.21683 4.13911C8.77696 4.76559 8.84031 4.73347 7.97741 3.81712C7.17858 2.99572 6.54218 2.80873 6.22759 3.35055Z" fill="white"/>
<path d="M11.4846 6.21157C6.69485 7.44588 2.41313 8.64554 2.03303 8.83829C1.05117 9.35214 0.391657 10.6901 0.399586 12.0878C0.404992 13.0408 1.01359 13.9268 4.88373 18.5745L9.36158 23.9495L9.51042 50.188C9.67115 78.5231 9.60239 77.6022 11.3587 79.2124C12.4763 80.2226 14.8919 80.463 16.3172 79.7243C16.8554 79.4036 17.614 78.7322 17.9284 78.1586C18.5266 77.2022 18.5542 76.4714 18.48 63.3839L18.4021 49.6611L19.1963 49.6566L19.9904 49.6521L20.067 63.1525C20.1497 77.733 20.1169 77.5426 21.8732 79.1527C22.959 80.1631 25.3746 80.4035 26.7999 79.6648C27.3381 79.3441 28.0967 78.6727 28.4112 78.0991C29.0091 77.1109 29.0366 76.3484 28.9227 56.2724L28.8364 35.4657L29.4789 36.7327C31.5985 40.7868 34.7749 46.328 35.3183 46.9285C35.6699 47.3077 36.435 47.7798 37.0079 47.9672C39.1403 48.6857 41.7962 46.4788 41.4342 44.2571C41.2687 43.0827 28.9762 20.9157 27.8257 19.6833C26.707 18.4825 24.6402 18.1448 18.9228 18.2408L14.031 18.3003L12.1762 16.1189L10.3213 13.9375L16.8875 12.2484C22.7239 10.7222 23.5166 10.4636 24.3059 9.60142C25.5686 8.19652 25.4937 6.19564 24.152 4.86904C22.7463 3.47928 21.6669 3.5807 11.4846 6.21157ZM23.3634 5.85829C23.6515 6.23786 23.8778 6.93544 23.8803 7.38016C23.8891 8.93668 23.0024 9.41822 17.8318 10.7182C15.1355 11.4006 12.4074 12.0832 11.7412 12.2458C10.187 12.6676 9.39957 13.8474 9.91413 14.9563C10.5577 16.414 12.9226 18.9101 14.0371 19.3803C14.8331 19.6935 16.5492 19.8108 20.2658 19.7897C23.7282 19.7701 25.6349 19.8863 26.1765 20.1692C27.2277 20.6715 27.741 21.558 34.3843 33.4646C38.0111 40.0198 39.9708 43.8842 39.9742 44.4878C39.9805 45.5996 39.0019 46.6852 37.9536 46.6912C36.7148 46.6982 35.7234 45.5284 33.5729 41.6333C30.7162 36.4398 29.8517 35.2375 29.0265 35.3693C27.5665 35.5999 27.5364 35.886 27.6544 56.6926C27.7753 78.0074 27.8051 77.6578 26.0307 78.462C24.4148 79.2018 22.824 78.7661 21.9578 77.278C21.4768 76.4866 21.4045 74.9304 21.3384 63.2724C21.2645 50.2484 21.2639 50.1531 20.5609 49.4265C19.698 48.5101 18.6815 48.5159 17.8923 49.3781C17.3241 50.0166 17.297 50.8427 17.2115 63.7723C17.1589 71.3013 17.067 77.4964 17.0356 77.5601C17.004 77.592 16.4975 77.9126 15.9595 78.265C14.5033 79.1628 13.3592 79.074 12.146 78.0008L11.0925 77.0855L10.7825 50.4349C10.53 28.3267 10.4084 23.6894 10.0234 23.0245C9.76678 22.5812 7.84714 20.1778 5.76813 17.68C3.6893 15.214 1.89672 12.8099 1.7989 12.3657C1.63701 11.8266 1.79296 11.3175 2.20267 10.7433C2.77013 9.97772 3.81641 9.62235 11.3653 7.57822C20.7855 5.01521 22.5947 4.75081 23.3634 5.85829Z" fill="white"/>
<path d="M28.2537 11.1352C28.8289 11.7355 29.2431 11.9556 29.4642 11.7319C29.8434 11.3803 28.5662 10.2122 27.8038 10.2165C27.5179 10.2182 27.6467 10.5351 28.2537 11.1352Z" fill="white"/>
<path d="M28.6803 13.6109C28.6812 13.7697 28.9696 14.2128 29.3215 14.6555C29.8655 15.3513 29.9292 15.3827 30.1169 14.8734C30.2424 14.5868 30.1762 14.1107 29.9524 13.8578C29.5365 13.3519 28.6779 13.1979 28.6803 13.6109Z" fill="white"/>
</svg>
