<svg width="65" height="54" viewBox="0 0 65 54" fill="none" xmlns="http://www.w3.org/2000/svg">
<path fill-rule="evenodd" clip-rule="evenodd" d="M51.9995 0.0701923C47.7113 0.854185 44.7312 4.4379 44.7312 8.81076C44.7312 12.2938 46.5952 15.2671 49.7046 16.744C50.9953 17.357 51.9085 17.5606 53.4127 17.5709C57.4836 17.599 60.9595 14.954 62.0527 10.9963C62.3587 9.88889 62.3461 7.46841 62.029 6.42245C60.8765 2.62216 57.7412 0.163462 53.8527 0.0106105C53.1613 -0.0165407 52.3274 0.0102333 51.9995 0.0701923ZM51.5272 2.19742C49.1046 2.98154 47.2906 4.88979 46.749 7.22392C46.1164 9.95036 47.2971 12.9472 49.6081 14.4812C52.4031 16.3364 56.0448 15.9709 58.3779 13.6011C59.7514 12.206 60.3612 10.7058 60.3526 8.74351C60.3392 5.67253 58.1974 2.92547 55.2099 2.14726C54.2249 1.89071 52.3978 1.9156 51.5272 2.19742ZM52.6585 3.69463C52.6585 4.26996 52.6382 4.30528 52.2188 4.45688C51.6781 4.65247 51.1886 5.27293 50.9451 6.07112C50.7402 6.74324 50.7997 7.30676 51.1472 7.9878C51.469 8.61831 51.7633 8.84872 53.0742 9.49658C54.3056 10.1052 54.5394 10.3857 54.3717 11.0534C54.1926 11.7674 52.8672 11.9804 51.5862 11.501C51.1985 11.3561 50.8571 11.2617 50.8274 11.2912C50.7979 11.3209 50.7384 11.6811 50.6956 12.0917L50.6175 12.8383L51.6067 13.07C52.1506 13.1974 52.6664 13.3218 52.7528 13.3464C52.8488 13.3735 52.9099 13.6124 52.9099 13.9606V14.5301H53.6013H54.2926V13.9075C54.2926 13.2935 54.3002 13.2815 54.8404 13.0426C56.0588 12.5036 56.6335 10.9313 56.0675 9.68551C55.7659 9.02156 55.2024 8.56112 54.0474 8.03468C52.8355 7.48248 52.6585 7.31568 52.6585 6.7264C52.6585 6.36375 52.7365 6.19079 52.9897 5.99168C53.3638 5.69741 53.7429 5.66976 54.6722 5.86912C55.0261 5.94492 55.3345 5.98741 55.3577 5.9634C55.3807 5.93926 55.4393 5.59962 55.4876 5.20844L55.5756 4.49735L54.8713 4.35117L54.1669 4.20485V3.64812V3.0914H53.4127H52.6585V3.69463ZM43.1131 22.355C40.401 24.5155 38.1037 26.3011 38.0082 26.3229C37.9126 26.3448 34.9724 25.1711 31.4744 23.7147C27.9764 22.2582 25.0586 21.0665 24.9904 21.0665C24.9221 21.0665 24.7055 21.1496 24.5092 21.2512C23.9742 21.5279 10.7622 30.9816 10.5804 31.218C10.3518 31.5147 10.3879 32.0566 10.6584 32.3907C11.2011 33.0608 11.2231 33.048 18.3664 27.9398C22.0091 25.3348 25.0404 23.2034 25.1025 23.2034C25.1645 23.2034 26.285 23.6492 27.5925 24.1941C35.6772 27.563 37.9624 28.4828 38.2479 28.4828C38.475 28.4828 39.4763 27.7625 41.6854 26.0096C43.3997 24.6494 45.6828 22.8412 46.759 21.9914C47.8353 21.1418 48.8676 20.3059 49.0531 20.1341C49.4921 19.7272 49.5038 19.1574 49.0817 18.7354C48.4522 18.1058 48.4321 18.118 43.1131 22.355ZM48.4645 23.2126L48.1333 23.4731V37.731L48.1333 51.9888H46.4364H44.7394L44.7394 42.6241C44.7394 33.5166 44.7327 33.2528 44.495 33.0151C44.3605 32.8806 44.0636 32.736 43.8351 32.6937C43.6066 32.6514 41.3988 32.6341 38.9292 32.6553C34.4481 32.6937 34.438 32.6944 34.1525 32.98L33.8663 33.2664L33.832 42.6589L33.7978 52.0516L32.1665 52.0132L30.5353 51.9748V41.8849V31.7949L30.2444 31.5215C29.9562 31.2508 29.9088 31.2483 25.1478 31.2483H20.3421L20.0336 31.5568L19.725 31.8653V41.9271V51.9888L18.3738 51.9992C17.6306 52.005 16.8952 52.0239 16.7397 52.0411L16.4568 52.0725V44.9345C16.4568 39.971 16.4144 37.7032 16.3173 37.4902C16.2405 37.3217 16.0399 37.1211 15.8715 37.0443C15.4329 36.8445 6.48592 36.8506 6.1097 37.0509C5.51627 37.3671 5.52909 37.1965 5.52494 44.7924L5.52092 51.9888L3.35259 51.9895C0.908224 51.9903 0.350618 52.0893 0.135796 52.5607C-0.089333 53.055 -0.0395557 53.3559 0.322712 53.6918L0.655315 54H32.0703C55.4545 54 63.5541 53.9632 63.7546 53.8558C64.1234 53.6585 64.4652 53.2296 64.4702 52.9577C64.4756 52.6614 64.1205 52.2906 63.6656 52.1176C63.4436 52.0333 62.4577 51.9851 61.1533 51.9952L59.0064 52.0115L58.9421 37.7018C58.907 29.8314 58.8645 23.3793 58.8479 23.3638C58.8314 23.3482 58.6509 23.2493 58.447 23.1439C58.1341 22.9821 57.3494 22.952 53.436 22.952C48.9319 22.952 48.7859 22.9597 48.4645 23.2126ZM50.0188 38.5074L50.0188 52.0516L53.4756 52.0516H56.9323L56.9323 38.5074V24.9632H53.4756H50.0188V38.5074ZM21.6944 33.2176C21.6483 33.2636 21.6106 37.506 21.6106 42.6451V51.9888H25.1302H28.6498V42.5613V33.1338H25.214C23.3242 33.1338 21.7404 33.1715 21.6944 33.2176ZM35.8452 43.3176L35.8775 51.9971L39.3015 52.0244C41.9408 52.0454 42.7393 52.0157 42.7855 51.8949C42.8187 51.8087 42.8334 47.9057 42.8183 43.2216L42.791 34.705L39.302 34.6716L35.8129 34.6381L35.8452 43.3176ZM7.40642 45.4524V51.9888H10.926H14.4456V45.4524V38.916H10.926H7.40642L7.40642 45.4524Z" fill="white"/>
</svg>
