<svg width="67" height="56" viewBox="0 0 67 56" fill="none" xmlns="http://www.w3.org/2000/svg">
<path fill-rule="evenodd" clip-rule="evenodd" d="M53.9254 0.072792C49.4784 0.885821 46.3879 4.60226 46.3879 9.13708C46.3879 12.7491 48.321 15.8325 51.5455 17.3641C52.884 17.9998 53.831 18.211 55.391 18.2217C59.6127 18.2508 63.2173 15.5078 64.351 11.4036C64.6683 10.2551 64.6552 7.74501 64.3263 6.66032C63.1312 2.71928 59.8798 0.169516 55.8472 0.0110035C55.1303 -0.0171534 54.2655 0.0106123 53.9254 0.072792ZM53.4356 2.2788C50.9233 3.09196 49.0421 5.07089 48.4804 7.49147C47.8245 10.3189 49.0489 13.4267 51.4455 15.0176C54.3439 16.9415 58.1205 16.5624 60.54 14.1048C61.9644 12.6581 62.5968 11.1023 62.5879 9.06734C62.574 5.88262 60.3528 3.03382 57.2547 2.22679C56.2332 1.96073 54.3385 1.98655 53.4356 2.2788ZM54.6088 3.83147C54.6088 4.42811 54.5877 4.46474 54.1529 4.62195C53.5921 4.82478 53.0844 5.46822 52.832 6.29598C52.6195 6.99299 52.6811 7.57738 53.0416 8.28364C53.3753 8.93751 53.6804 9.17645 55.0399 9.8483C56.3169 10.4795 56.5593 10.7703 56.3855 11.4628C56.1997 12.2032 54.8252 12.4241 53.4968 11.927C53.0947 11.7767 52.7407 11.6788 52.7099 11.7094C52.6793 11.7402 52.6176 12.1138 52.5732 12.5395L52.4922 13.3138L53.518 13.5541C54.0821 13.6862 54.617 13.8152 54.7066 13.8407C54.8062 13.8689 54.8695 14.1165 54.8695 14.4776V15.0683H55.5865H56.3035V14.4226C56.3035 13.7858 56.3113 13.7734 56.8715 13.5256C58.1351 12.9667 58.7311 11.3362 58.1441 10.0442C57.8314 9.35569 57.247 8.8782 56.0491 8.33227C54.7924 7.75961 54.6088 7.58663 54.6088 6.97552C54.6088 6.59945 54.6897 6.42008 54.9523 6.21359C55.3403 5.90843 55.7334 5.87975 56.6971 6.0865C57.0641 6.1651 57.384 6.20916 57.408 6.18426C57.4318 6.15924 57.4926 5.80701 57.5428 5.40135L57.634 4.66392L56.9036 4.51232L56.1731 4.36059V3.78324V3.20589H55.391H54.6088V3.83147ZM44.7099 23.1829C41.8973 25.4235 39.5149 27.2752 39.4159 27.2979C39.3168 27.3205 36.2676 26.1034 32.6401 24.593C29.0126 23.0825 25.9867 21.8468 25.916 21.8468C25.8452 21.8468 25.6206 21.9329 25.4169 22.0383C24.8622 22.3252 11.1608 32.1291 10.9722 32.3742C10.7352 32.6819 10.7726 33.2439 11.0532 33.5904C11.6159 34.2853 11.6387 34.272 19.0466 28.9746C22.8243 26.2731 25.9678 24.0628 26.0322 24.0628C26.0965 24.0628 27.2585 24.5251 28.6144 25.0902C36.9985 28.5838 39.3684 29.5378 39.6645 29.5378C39.9 29.5378 40.9384 28.7907 43.2293 26.9729C45.0071 25.5623 47.3747 23.6871 48.4908 22.8059C49.6069 21.9249 50.6776 21.058 50.8698 20.8798C51.3252 20.4578 51.3373 19.8669 50.8996 19.4293C50.2467 18.7764 50.2259 18.789 44.7099 23.1829ZM50.2595 24.0723L49.916 24.3424V39.1284L49.916 53.9143H48.1562H46.3964L46.3964 44.2028C46.3964 34.758 46.3895 34.4844 46.143 34.2379C46.0035 34.0984 45.6956 33.9485 45.4586 33.9046C45.2216 33.8608 42.9321 33.8428 40.371 33.8648C35.7239 33.9046 35.7135 33.9053 35.4175 34.2015L35.1206 34.4985L35.085 44.2389L35.0496 53.9795L33.3578 53.9396L31.6662 53.8998V43.4362V32.9725L31.3646 32.689C31.0657 32.4082 31.0165 32.4056 26.0792 32.4056H21.0955L20.7756 32.7256L20.4556 33.0455V43.48V53.9143L19.0543 53.9251C18.2836 53.9311 17.5209 53.9507 17.3597 53.9685L17.0664 54.0011V46.5987C17.0664 41.4514 17.0223 39.0996 16.9217 38.8787C16.842 38.704 16.634 38.4959 16.4593 38.4163C16.0045 38.2092 6.72614 38.2154 6.33599 38.4232C5.72058 38.7511 5.73387 38.5742 5.72957 46.4514L5.7254 53.9143L3.47676 53.9151C0.941862 53.9159 0.363604 54.0186 0.140826 54.5074C-0.0926416 55.02 -0.0410207 55.3321 0.334665 55.6804L0.679586 56H33.2581C57.5083 56 65.9079 55.9618 66.1159 55.8505C66.4983 55.6458 66.8528 55.201 66.858 54.9191C66.8636 54.6118 66.4953 54.2273 66.0236 54.0479C65.7934 53.9604 64.771 53.9105 63.4183 53.921L61.1918 53.9379L61.1252 39.0982C61.0887 30.9362 61.0446 24.2452 61.0274 24.2292C61.0103 24.213 60.8232 24.1104 60.6117 24.001C60.2873 23.8333 59.4734 23.8021 55.4151 23.8021C50.7442 23.8021 50.5928 23.8101 50.2595 24.0723ZM51.8714 39.9336L51.8714 53.9795H55.4561H59.0409L59.0409 39.9336V25.8878H55.4561H51.8714V39.9336ZM22.4979 34.4479C22.4501 34.4956 22.4109 38.8951 22.4109 44.2246V53.9143H26.0609H29.7109V44.1376V34.3609H26.1479C24.1881 34.3609 22.5456 34.4 22.4979 34.4479ZM37.1728 44.922L37.2063 53.9229L40.7571 53.9512C43.4942 53.973 44.3222 53.9422 44.3702 53.8169C44.4046 53.7275 44.4198 49.68 44.4042 44.8224L44.3759 35.9904L40.7576 35.9557L37.1393 35.921L37.1728 44.922ZM7.68074 47.1358V53.9143H11.3307H14.9807V47.1358V40.3573H11.3307H7.68074L7.68074 47.1358Z" fill="#3498DB"/>
</svg>
