<svg width="55" height="61" viewBox="0 0 55 61" fill="none" xmlns="http://www.w3.org/2000/svg">
<path d="M13.5372 0.881285C12.7764 2.93721 14.8397 10.8572 17.0286 14.2486L18.2399 16.0596L26.9475 16.1197C33.72 16.1536 35.8479 16.0625 36.4258 15.6718C37.2732 15.0472 39.2987 11.0869 40.0183 8.64424C40.9646 5.34876 41.4028 1.28258 40.8958 0.666658C40.4669 0.166332 38.2606 0.103122 27.0772 0.175036C15.3133 0.250683 13.7659 0.338032 13.5372 0.881285ZM38.7903 4.24048C38.4195 6.75828 37.2438 10.4809 36.2107 12.3064L35.3306 13.86L27.3211 14.0276L19.3112 14.1565L18.1354 11.8422C17.0382 9.72078 16.288 7.40368 15.5683 3.80933L15.2895 2.57276L27.1695 2.49637L39.0495 2.41997L38.7903 4.24048Z" fill="white"/>
<path d="M15.1275 19.4851C6.60833 24.6482 0.038277 38.0415 0.651205 49.1053C1.04502 56.1847 4.12299 59.4156 11.1713 60.2216C12.7592 60.4049 21.0019 60.3906 29.6691 60.1801C44.7205 59.8124 45.4165 59.7305 47.6168 58.865C50.5119 57.7241 52.5124 55.8924 53.6567 53.2922C54.954 50.4202 54.9067 43.0677 53.6003 38.5097C51.582 31.5569 47.0079 24.3497 42.4976 21.0506C38.1816 17.8663 38.3753 17.9038 27.3853 17.9745L17.595 18.0374L15.1275 19.4851ZM39.7154 21.6876C47.1376 26.4773 52.3882 36.5826 52.568 46.4883C52.6314 50.319 52.5565 50.7065 51.4866 52.8418C50.4932 54.8218 50.0321 55.3279 48.219 56.2296C45.0176 57.8755 41.8847 58.1279 24.8185 58.1215C10.8483 58.134 9.18385 58.0673 7.78677 57.4571C4.02221 55.7785 2.72853 53.1941 2.72965 47.3505C2.74334 37.4436 8.36015 26.2622 15.7214 21.5711L17.5712 20.3595L27.4776 20.2958L37.4228 20.2318L39.7154 21.6876Z" fill="white"/>
<path d="M24.9568 25.4978C24.844 26.0016 24.8489 26.7755 24.9678 27.2004C25.165 27.7797 25.0117 28.0128 24.2777 28.211C22.8868 28.5683 20.9247 30.361 20.3537 31.8353C18.7149 35.7544 20.8651 39.146 26.1788 41.0081C28.8551 41.9584 29.4803 42.8831 27.7029 43.3202C26.389 43.5996 24.9554 43.3379 22.8603 42.5C22.0065 42.1185 21.2705 42.0071 21.0785 42.2406C20.6558 42.7077 19.5176 46.2366 19.523 47.0879C19.5275 47.7844 21.5073 48.7392 23.9092 49.1494C25.2654 49.4116 25.3433 49.4885 25.3525 50.9203L25.3622 52.4295L27.8775 52.4133L30.3928 52.3971L30.3821 50.7331C30.3719 49.1466 30.4486 49.03 31.9148 48.3627C34.2686 47.3027 35.4947 45.3985 35.6698 42.5337C35.8414 39.1271 34.9436 37.9332 30.5961 35.8715C28.3447 34.8024 27.1788 34.0359 27.1761 33.6102C27.1724 33.0298 27.4817 32.9891 29.4183 33.2475C33.9496 33.7989 33.8337 33.8383 34.4003 31.6675C34.6642 30.5823 34.8894 29.4973 34.8877 29.2264C34.8837 28.6072 32.5941 27.6158 31.2397 27.6245C30.427 27.6297 30.271 27.4372 30.1467 26.161L30.0214 24.7299L27.6214 24.6293C25.3376 24.5279 25.183 24.5675 24.9568 25.4978ZM28.3778 27.9138C28.5024 29.2287 28.6195 29.3828 29.665 29.4922C31.9107 29.6712 32.5703 29.9379 32.575 30.6731C32.579 31.2923 32.2312 31.3719 29.4448 31.3511C26.4649 31.3316 26.2716 31.3715 25.5042 32.3826C24.8136 33.3158 24.7764 33.5483 25.248 34.6675C25.6804 35.7096 26.3799 36.1695 29.3298 37.5437C31.8915 38.7268 32.9798 39.4551 33.3328 40.1881C34.5888 42.9277 33.0223 46.0723 29.9703 46.8659C28.7339 47.1835 28.6188 47.339 28.5125 48.8489C28.3711 50.9396 27.4047 51.1006 27.198 49.0509C27.0727 47.6198 27.0727 47.6198 24.5928 47.1327C23.198 46.8708 22.0351 46.5687 21.9185 46.492C21.8404 46.3764 21.8763 45.9505 22.0281 45.4851C22.2558 44.7871 22.4488 44.7085 23.3019 44.9739C23.8834 45.1249 25.4322 45.2698 26.7092 45.2615C29.805 45.2416 30.8062 44.4612 30.6367 42.1791C30.5097 40.4772 30.5486 40.5156 26.2413 38.6858C22.3219 37.0082 21.1885 35.2741 22.2551 32.6357C22.7504 31.4329 23.2128 31.1203 26.3763 29.5907C26.6849 29.4339 26.9897 28.6967 27.0619 27.8836C27.2045 25.9864 28.2106 25.9799 28.3778 27.9138Z" fill="white"/>
</svg>
