<svg width="46" height="58" viewBox="0 0 46 58" fill="none" xmlns="http://www.w3.org/2000/svg">
<path fill-rule="evenodd" clip-rule="evenodd" d="M3.7813 0.100924C2.62255 0.330385 1.39457 1.28564 0.764085 2.44814C0.591394 2.76659 0.349128 3.42176 0.225842 3.90403C0.00589919 4.76463 0.0017065 5.24339 0.0017065 29.5965C0.0017065 57.2979 -0.0764803 54.8566 0.825614 55.3305C1.24771 55.5522 1.51694 55.5876 3.08351 55.6268L4.86221 55.6713L5.47716 55.3194C6.26436 54.8686 6.96792 54.1028 7.34424 53.2869C7.58118 52.7729 7.65008 52.4253 7.68634 51.5582C7.75841 49.838 7.37971 48.7157 5.86424 46.1569C4.67977 44.1572 4.21949 42.0927 4.35218 39.3744C4.54765 35.3704 5.56657 32.4483 7.06028 31.6084C7.35387 31.4433 8.44124 31.156 10.0602 30.8159C11.7465 30.4615 12.7007 30.2073 12.9012 30.0589C13.3198 29.749 13.539 29.074 13.4386 28.4044C13.3378 27.7309 12.9928 27.3234 12.4096 27.1888C12.1603 27.1311 10.596 27.0828 8.93347 27.0813L5.91048 27.0786L5.67569 26.7798C5.38187 26.4062 5.37371 25.8262 5.65733 25.4756L5.87376 25.208L9.1984 25.1513C12.8092 25.0897 12.8733 25.0784 13.2651 24.4355C13.6804 23.7541 13.4565 22.6559 12.8062 22.1845C12.5514 21.9998 12.2043 21.9762 9.35013 21.9497C6.14957 21.92 5.79308 21.876 5.52747 21.4781C5.37031 21.2425 5.44102 20.6413 5.65733 20.374C5.87297 20.1076 5.88895 20.106 9.14175 20.0257C10.9391 19.9814 12.521 19.9174 12.6571 19.8836C13.3137 19.7208 13.6949 18.329 13.2947 17.5556C12.9326 16.8556 12.7715 16.8248 9.14163 16.7619C5.87512 16.7052 5.87354 16.7051 5.65722 16.4375C5.40736 16.1286 5.37371 15.5366 5.58912 15.2418C5.82549 14.9184 6.55739 14.8448 9.58832 14.8396C12.3598 14.8347 12.4426 14.8279 12.8178 14.5753C13.5815 14.0612 13.7013 12.7303 13.0432 12.0715L12.6889 11.7169L9.43308 11.6494C7.64248 11.6122 6.07036 11.5473 5.9396 11.5054C5.3983 11.3318 5.26889 10.3381 5.73937 9.96797C6.02424 9.74372 6.1788 9.73261 9.11047 9.7266C12.5117 9.71946 12.8376 9.66856 13.1729 9.09207C13.4875 8.5513 13.5422 7.71769 13.2945 7.24267C12.9022 6.49068 12.7456 6.45667 9.3431 6.38423C7.66424 6.34852 6.18866 6.29059 6.06402 6.25544C5.40034 6.06861 5.2179 5.29746 5.71898 4.79626L5.99705 4.51793H9.12203C12.4898 4.51793 12.8381 4.46714 13.1933 3.92489C13.4489 3.53456 13.5379 2.69438 13.3757 2.20258C13.1239 1.43937 12.7655 1.30775 9.35013 0.723325C7.66741 0.435365 6.01359 0.151033 5.6749 0.091514C4.966 -0.0333063 4.44612 -0.0306988 3.7813 0.100924ZM3.91105 0.882156C3.52465 0.975687 2.87354 1.2785 2.58006 1.50127C2.39377 1.64253 2.38051 2.51706 2.35343 16.3758C2.32623 30.2834 2.31366 31.1022 2.1268 31.1382C1.93949 31.1743 1.92737 30.4044 1.90017 16.6851L1.87139 2.19385L1.57009 2.70401C1.40442 2.9846 1.17496 3.46926 1.06017 3.78103C0.860288 4.3243 0.850317 5.38465 0.821535 29.2313C0.804991 42.9171 0.820515 54.1907 0.856096 54.2834C0.898362 54.3936 1.09949 54.1438 1.43581 53.5633C1.88952 52.7799 1.97065 52.6942 2.11785 52.8414C2.26505 52.9888 2.23003 53.0983 1.82323 53.7634C1.5693 54.1784 1.36148 54.5626 1.36148 54.617C1.36148 54.725 1.98289 54.8237 2.28793 54.7644C2.3923 54.7441 2.74482 54.2761 3.07128 53.7245C3.4562 53.0741 3.71796 52.7419 3.8162 52.7797C4.04895 52.869 4.0051 53.0208 3.5013 53.8691C3.00465 54.7057 3.02606 54.8747 3.61858 54.7956C3.77949 54.7741 3.99683 54.753 4.10175 54.7487C4.21575 54.744 4.52623 54.3536 4.87422 53.7772C5.40396 52.8997 5.62107 52.6917 5.80985 52.8804C5.84668 52.9173 5.65121 53.3191 5.37552 53.7735C4.80736 54.7097 4.77926 54.7997 5.11082 54.6221C5.59195 54.3645 6.26028 53.6618 6.55444 53.1041C6.83127 52.5793 6.85665 52.4233 6.85019 51.2831C6.84169 49.795 6.59546 49.0195 5.57688 47.273C4.08374 44.7132 3.65575 43.405 3.55071 41.0798C3.40657 37.8882 4.07116 34.2952 5.14005 32.4877C5.52861 31.8308 6.26504 31.0931 6.81019 30.8148C7.16543 30.6335 11.7219 29.5727 12.1454 29.5727C12.1973 29.5727 12.3416 29.4707 12.4663 29.346C12.7306 29.0815 12.7673 28.4707 12.5378 28.1567C12.3932 27.9589 12.1557 27.9421 9.0699 27.9118C6.13359 27.883 5.7183 27.8564 5.41359 27.6774C4.42629 27.0972 4.38549 25.3695 5.343 24.6863C5.71943 24.4177 5.76464 24.4137 9.04792 24.3577C12.1717 24.3044 12.3813 24.2877 12.5323 24.0809C12.7298 23.8102 12.7347 23.4834 12.5465 23.1106L12.4034 22.8272L9.17699 22.7705C6.02481 22.7151 5.93971 22.7075 5.4732 22.4401C4.64396 21.965 4.37575 20.8273 4.90674 20.0381C5.41983 19.2755 6.12271 19.1481 9.83455 19.1449L12.4719 19.1427L12.5824 18.8519C12.7374 18.444 12.72 18.0893 12.5322 17.8322C12.3813 17.6254 12.1715 17.6088 9.04248 17.5555C6.08373 17.5051 5.67875 17.476 5.4017 17.2943C4.35807 16.6093 4.39411 14.8861 5.46413 14.3017C5.79104 14.123 6.24124 14.0907 9.08973 14.041C11.2841 14.0028 12.3837 13.9427 12.4698 13.8563C12.54 13.7859 12.625 13.5233 12.6586 13.2726C12.7617 12.503 12.6781 12.4838 9.01019 12.4281C6.27682 12.3866 5.78515 12.3527 5.46017 12.1827C4.99546 11.9395 4.65348 11.2371 4.65008 10.5186C4.64804 10.0881 4.7149 9.92183 5.04555 9.53535C5.48872 9.01725 5.82651 8.89571 6.85722 8.88324C7.23115 8.87871 8.63795 8.86397 9.98344 8.85048L12.4299 8.82599L12.5613 8.53724C12.7387 8.14793 12.7269 7.79138 12.5273 7.50637C12.368 7.27861 12.2455 7.26795 9.19897 7.21625C6.31943 7.16739 5.99671 7.14222 5.59671 6.93577C4.34243 6.28809 4.31909 4.54491 5.55637 3.92297C5.903 3.74872 6.32532 3.72468 9.04599 3.72457C10.9172 3.72446 12.2259 3.67899 12.3556 3.60961C12.6219 3.46699 12.7463 2.8591 12.5921 2.45346C12.4442 2.06427 12.4084 2.0552 8.23784 1.3489C4.80668 0.767766 4.51411 0.736249 3.91105 0.882156ZM22.9237 3.63931C22.5925 4.00096 21.9989 5.41877 21.805 6.31145C21.3836 8.25098 21.5184 13.2618 22.163 19.6274C22.6457 24.3934 23.3226 29.8229 23.4499 29.9503C23.5166 30.017 23.5711 30.1467 23.5711 30.2386C23.5711 30.3954 20.7605 38.1894 20.6665 38.2937C20.6425 38.3202 20.3812 38.0989 20.0856 37.8019C19.4062 37.1188 18.8215 36.7736 17.9665 36.5509C17.0565 36.3138 16.2633 36.3294 15.3814 36.602C11.4994 37.8017 8.82503 42.9364 9.68373 47.5418C9.91546 48.7846 10.229 49.4967 10.9122 50.3313C12.5473 52.3294 15.172 52.5988 17.5805 51.0163C19.3508 49.853 20.4089 48.3399 21.3976 45.5579C22.5271 42.3798 26.0785 32.5814 26.1136 32.5463C26.1724 32.4874 26.1451 32.3438 27.5943 40.3429C28.3117 44.3023 28.9775 47.8224 29.0739 48.1654C29.3962 49.3108 30.2048 50.7817 30.9786 51.63C32.169 52.9349 33.3117 53.5761 34.7981 53.7731C35.272 53.836 35.3749 53.9114 35.984 54.643C36.7811 55.6006 38.1654 56.7349 39.1311 57.2222C41.6548 58.4954 44.6329 58.1705 45.7162 56.5037C46.1059 55.9041 46.095 55.3771 45.6791 54.7211C45.0411 53.7144 44.6426 53.6269 43.5305 54.2492C42.92 54.5907 42.6434 54.6738 41.9741 54.7168C41.0073 54.7788 40.436 54.5594 38.8986 53.5361L37.9493 52.904L38.5664 52.2568C39.2372 51.5532 39.7272 50.6796 40.1362 49.458C40.3696 48.7611 40.398 48.4648 40.396 46.7483C40.3934 44.532 40.2341 43.7819 39.3853 41.9867C37.9489 38.9487 35.5474 37.385 33.1016 37.8953C32.2072 38.0818 31.8632 38.2404 31.1186 38.809C30.7687 39.0762 30.5754 39.1639 30.5453 39.0689C30.5204 38.9902 30.1349 36.9106 29.6887 34.4476L28.8773 29.9695L29.8399 26.7385C33.5168 14.3974 34.985 6.9843 34.1848 4.80136C34.0705 4.48959 33.9521 4.15798 33.9216 4.06445C33.8364 3.80279 33.5976 4.29607 33.1976 5.55924L32.8498 6.65734L32.3888 6.49454C31.78 6.2797 31.5338 6.28934 31.4033 6.5332C31.2376 6.84304 31.441 7.07862 32.0127 7.23881C32.2966 7.31828 32.5466 7.41454 32.5684 7.45274C32.6548 7.60352 32.2801 8.59925 32.1371 8.59925C32.0533 8.59925 31.7789 8.52658 31.5273 8.4377C31.1603 8.30823 31.0317 8.30404 30.8775 8.41695C30.5271 8.67317 30.7241 8.97848 31.3911 9.21258C31.7332 9.33264 32.0256 9.4391 32.041 9.4493C32.0564 9.4595 31.9883 9.71878 31.8897 10.0254C31.791 10.3322 31.6923 10.643 31.6703 10.716C31.6405 10.8152 31.499 10.8092 31.1108 10.6922C30.4642 10.4975 30.2331 10.5729 30.2788 10.9636C30.3061 11.1975 30.4184 11.297 30.8232 11.4461C31.3781 11.6505 31.3693 11.633 31.2384 12.2681C31.1511 12.6915 31.1361 12.7031 30.7874 12.6205C30.589 12.5734 30.2736 12.5294 30.0866 12.5228C29.7994 12.5124 29.7412 12.5571 29.7119 12.8111C29.6806 13.081 29.7354 13.1309 30.2501 13.302C30.5653 13.4067 30.8232 13.5301 30.8232 13.5761C30.8232 13.6221 30.7461 13.9193 30.6521 14.2363L30.4809 14.8129L29.929 14.6364C29.2782 14.4282 29.0101 14.4979 29.0101 14.8754C29.0101 15.0903 29.1093 15.1898 29.4657 15.3324C29.7162 15.4327 29.9967 15.5148 30.0889 15.5148C30.2958 15.5148 30.2958 15.5152 30.0821 16.2507L29.9075 16.8515L29.3435 16.6711C28.819 16.5032 28.766 16.5042 28.5851 16.685C28.3124 16.9579 28.5049 17.2178 29.1315 17.4225C29.4075 17.5127 29.646 17.5964 29.6614 17.6084C29.6848 17.6268 29.4399 18.5504 29.2942 18.9927C29.2617 19.0913 29.1041 19.0794 28.6905 18.947C28.0327 18.7366 27.7637 18.8048 27.7637 19.182C27.7637 19.4606 28.0023 19.6118 28.6985 19.7746C28.8699 19.8147 29.0101 19.8768 29.0101 19.9128C29.0101 20.0042 28.6409 21.3444 28.6021 21.394C28.5845 21.4162 28.3154 21.3691 28.0039 21.2892C27.5417 21.1707 27.4052 21.171 27.2607 21.2909C27.1635 21.3717 27.0838 21.4019 27.0838 21.3581C27.0838 21.2235 24.3665 7.94545 23.858 5.59495C23.335 3.17813 23.3389 3.18606 22.9237 3.63931ZM22.7269 5.89458C22.6281 6.22755 22.4886 7.09982 22.4168 7.83287C22.1959 10.0913 22.5439 15.9932 23.282 22.5101C23.436 23.8693 23.6689 25.925 23.7996 27.0786C23.9303 28.2321 24.0846 29.2915 24.1425 29.4329C24.2132 29.6054 24.6032 29.8594 25.3278 30.2051C25.9218 30.4884 26.4851 30.8383 26.5796 30.9826C26.6741 31.1268 26.897 32.0193 27.0751 32.966C27.2531 33.9126 27.4244 34.7128 27.4557 34.7442C27.5023 34.7907 28.7716 34.4778 28.8686 34.3958C28.9094 34.3613 27.5479 27.5271 25.9655 19.8229C25.2163 16.1752 24.2432 11.4346 23.8032 9.28832C23.3632 7.142 22.9815 5.36413 22.955 5.33748C22.9283 5.31096 22.8257 5.56162 22.7269 5.89458ZM30.7894 16.7936L28.0929 26.2283L28.3093 27.2486C28.4283 27.8098 28.556 28.1924 28.593 28.0989C28.9436 27.2132 31.0814 19.5534 31.8909 16.2819C32.8532 12.3932 33.6304 8.2571 33.5237 7.59275C33.5029 7.46419 32.2726 11.6046 30.7894 16.7936ZM27.2182 21.9855C27.2514 22.0743 27.3716 22.6451 27.4855 23.2539C27.5994 23.8627 27.7256 24.3219 27.7661 24.2742C27.848 24.1779 28.3303 22.5176 28.3303 22.3321C28.3303 22.2674 28.1646 22.1665 27.962 22.1079C27.7594 22.0494 27.4956 21.9616 27.3757 21.9129C27.2123 21.8463 27.1729 21.8646 27.2182 21.9855ZM25.1816 26.5648C24.4789 26.8785 24.2987 27.9254 24.8559 28.4549C25.2391 28.8189 25.5932 28.9158 26.0218 28.7743C26.8666 28.4953 27.1372 27.503 26.5456 26.8533C26.1709 26.442 25.6861 26.3394 25.1816 26.5648ZM25.296 27.1417C25.1487 27.2449 25.0441 27.4372 25.0441 27.6047V27.8912L25.4974 27.532C25.7467 27.3345 25.9507 27.1262 25.9507 27.069C25.9507 26.9057 25.573 26.9476 25.296 27.1417ZM25.7432 27.8643C25.3438 28.2063 25.408 28.4011 25.881 28.2823C26.0902 28.2298 26.4039 27.8104 26.4039 27.5834C26.4039 27.4392 26.078 27.5777 25.7432 27.8643ZM23.654 32.4963C23.2967 33.4808 23.0045 34.3379 23.0045 34.401C23.0045 34.4642 23.3043 34.6237 23.6709 34.7556L24.3373 34.9955L24.9755 33.2195C25.3265 32.2426 25.613 31.3863 25.6122 31.3167C25.6109 31.2094 24.5917 30.7064 24.3754 30.7064C24.3358 30.7064 24.0112 31.5119 23.654 32.4963ZM1.92805 35.0711C1.92805 37.5464 1.93473 37.622 2.15468 37.622C2.37462 37.622 2.38131 37.5464 2.38131 35.0711C2.38131 32.5959 2.37462 32.5203 2.15468 32.5203C1.93473 32.5203 1.92805 32.5959 1.92805 35.0711ZM22.7202 35.0428C22.6923 35.1208 22.2605 36.3025 21.7605 37.6688C21.2606 39.0351 20.8515 40.1768 20.8515 40.2058C20.8515 40.2348 20.6031 39.8821 20.2995 39.4221C19.3026 37.9117 18.4665 37.3364 17.0802 37.2068C15.7332 37.081 14.3208 37.7092 13.0381 39.0045C11.4034 40.6553 10.4868 42.7738 10.3492 45.2198C10.2306 47.3291 10.7179 48.9966 11.7673 50.0717C12.4964 50.8186 13.2288 51.1543 14.246 51.2077C16.3612 51.3189 18.5903 49.7282 19.8593 47.2017C20.1271 46.6686 24.1376 35.6799 24.1376 35.4793C24.1376 35.4031 22.9944 34.9011 22.8209 34.9011C22.7933 34.9011 22.748 34.9649 22.7202 35.0428ZM28.0753 35.0825C27.7792 35.1735 27.5371 35.3135 27.5371 35.3935C27.5371 35.9094 29.7448 47.5869 29.9694 48.2593C30.3943 49.531 30.9968 50.5147 31.8972 51.4069C32.9256 52.4259 33.7433 52.8412 34.8458 52.9045C35.6229 52.949 35.6463 52.9595 35.9989 53.4202C37.2544 55.0609 39.0034 56.4242 40.4689 56.9044C41.6743 57.2994 43.1 57.2887 43.9676 56.8781C45.0491 56.3665 45.3864 55.8567 45.0608 55.2266C44.7323 54.591 44.6299 54.5743 43.7784 55.0183C42.0275 55.9311 40.8777 55.7817 38.6583 54.3527C37.9121 53.8722 36.7155 52.8638 36.7155 52.7155C36.7155 52.6731 36.895 52.5417 37.1145 52.4234C38.1424 51.8696 39.1544 50.2566 39.5041 48.6149C39.7531 47.4453 39.6602 45.1519 39.3159 43.9707C38.662 41.728 37.2722 39.8132 35.7321 39.0331C35.1326 38.7295 34.9691 38.699 33.9393 38.699C32.6331 38.699 32.3765 38.8088 30.9079 39.9966C30.386 40.4187 30.0608 40.6132 30.0158 40.5303C29.9768 40.4584 29.726 39.1623 29.4583 37.6503C28.9195 34.606 29.0196 34.7919 28.0753 35.0825ZM15.9072 38.6845C14.4028 39.1756 13.1925 40.3354 12.3415 42.1016C11.4484 43.9553 11.2497 45.4324 11.6717 47.0829C12.1441 48.931 13.0311 49.7985 14.4493 49.7995C15.5712 49.8003 16.2264 49.5034 17.2392 48.5352C18.3686 47.4557 18.8817 46.6771 19.337 45.3519C19.8085 43.9793 19.9119 42.8996 19.6806 41.765C19.3763 40.2717 18.7661 39.2577 17.9031 38.8112C17.434 38.5685 16.4531 38.5061 15.9072 38.6845ZM16.2553 39.4289C15.1909 39.6837 13.9472 40.7577 13.2606 42.0146C12.1386 44.0689 11.9673 46.1857 12.79 47.833C13.3144 48.8829 14.1047 49.2283 15.2319 48.9005C15.7516 48.7494 16.0426 48.5613 16.6631 47.9757C17.9891 46.7241 18.6556 45.4705 18.9184 43.7335C19.2156 41.7689 18.4301 39.7689 17.2305 39.4354C16.7837 39.3112 16.7474 39.311 16.2553 39.4289ZM33.0793 40.1513C31.6054 40.7035 30.7099 42.4471 30.7099 44.7643C30.7099 46.0624 31.0189 47.2568 31.7219 48.6755C32.6836 50.6164 33.6072 51.433 34.9559 51.5347C36.4106 51.6446 37.5827 50.613 38.209 48.6716C38.4195 48.0191 38.4627 47.6357 38.4576 46.4648C38.4524 45.2517 38.4088 44.9172 38.1542 44.1407C37.9905 43.6419 37.6735 42.9277 37.4496 42.5536C36.9488 41.7169 35.9055 40.6312 35.3024 40.3189C34.7403 40.0279 33.6316 39.9442 33.0793 40.1513ZM33.0789 41.0579C32.0088 41.6183 31.4232 43.1633 31.5287 45.1476C31.6492 47.4141 33.0575 50.0988 34.3937 50.6093C35.6705 51.0971 36.8038 50.3154 37.4136 48.526C37.7718 47.4751 37.7752 45.6261 37.4209 44.4796C37.1183 43.5005 36.5317 42.5029 35.8305 41.7753C34.8934 40.8027 34.0073 40.5716 33.0789 41.0579Z" fill="#E8F6F3"/>
</svg>
