<svg width="66" height="74" viewBox="0 0 66 74" fill="none" xmlns="http://www.w3.org/2000/svg">
<path fill-rule="evenodd" clip-rule="evenodd" d="M18.6382 0.71138C17.191 1.01619 15.6862 1.97084 14.3109 3.45678C13.6241 4.19884 12.8823 4.74921 12.5779 4.74231C11.7727 4.72464 9.71559 5.64272 8.82748 6.41573C8.39344 6.79329 7.7359 7.68808 7.36601 8.4041L6.69364 9.70596L6.29978 21.5166L5.90591 33.3273L3.70373 43.014C2.49247 48.3417 1.28579 53.6435 1.02182 54.7958C0.205797 58.3606 0.610169 60.5267 2.45866 62.4907C2.96078 63.0243 3.88876 63.6928 4.52112 63.9762C5.15323 64.2593 5.66812 64.5764 5.66521 64.6804C5.65094 65.1995 7.47427 66.9585 8.63194 67.5418C9.90616 68.1839 10.1535 68.2098 17.339 68.4502L24.7347 68.6978L28.4617 70.3043C34.1134 72.7406 35.1296 73.0698 37.3393 73.1801C39.8821 73.307 41.3755 72.7198 43.3478 70.8167C44.3876 69.8135 45.0562 69.39 45.7591 69.2888C46.9037 69.1244 48.6317 68.0921 49.5832 67.005C50.6059 65.8363 51.2181 64.1789 51.2763 62.4213L51.3287 60.8394L55.2665 60.9698C58.9676 61.0924 59.2884 61.062 60.6062 60.4624C61.377 60.1116 62.5067 59.2973 63.116 58.6531C64.7678 56.9069 65.0811 55.6711 65.2593 50.1961C65.4034 45.7719 65.3804 45.4777 64.7797 44.0712C63.9909 42.2241 63.1317 41.2478 61.4623 40.3009C60.2531 39.6155 59.8595 39.5428 56.2043 39.3322L52.2534 39.1045L52.4253 38.2744C52.5197 37.8177 53.6194 33.0688 54.8692 27.7209C57.2374 17.5877 57.5062 15.6612 56.807 13.8446C56.2425 12.3787 54.6995 10.7206 53.3893 10.173C52.7485 9.90492 52.2269 9.60666 52.23 9.51037C52.2332 9.41381 51.7707 8.82037 51.2019 8.19137C49.282 6.06796 49.4435 6.10615 40.5077 5.66186L32.5322 5.26528L29.1119 3.65333C23.4073 0.964948 20.847 0.245886 18.6382 0.71138ZM19.2728 3.60418C18.2001 3.8393 17.2519 4.32086 17.2415 4.63566C17.2364 4.78856 18.8564 4.94471 21.2762 5.02486C23.6087 5.10212 25.2156 5.0571 25.0743 4.91841C24.2985 4.15729 20.5861 3.31612 19.2728 3.60418ZM11.9329 7.73626C10.8474 8.16428 9.68413 9.47875 9.4572 10.5335C9.35682 10.9994 8.92637 22.9497 8.50035 37.0898C7.73235 62.5836 7.73006 62.8054 8.25003 63.5478C8.53836 63.9596 9.09656 64.5527 9.49067 64.8661C10.1948 65.4265 10.4988 65.4466 27.6747 66.0794L45.1424 66.7231L46.2111 66.1637C47.6008 65.4364 48.3018 64.2886 48.5444 62.3438L48.7402 60.7722L35.0745 60.2441L21.4086 59.7159L19.9613 58.7104C18.2197 57.5002 16.9973 55.5972 16.6863 53.6107C16.4025 51.7989 16.5871 46.1375 16.9877 44.3587C17.1575 43.6053 17.4947 42.6061 17.7374 42.138C18.4582 40.748 20.299 39.2147 21.8847 38.6838C23.272 38.2192 23.9447 38.2166 36.3726 38.6282L49.4056 39.0599L49.7833 25.3676C50.1495 12.0993 50.1451 11.6463 49.6449 10.7317C49.3612 10.2125 48.6656 9.50618 48.0992 9.16194L47.0697 8.53622L29.9127 7.97402C16.2425 7.52599 12.5885 7.47752 11.9329 7.73626ZM52.7384 19.0774L52.5687 24.9965L53.455 21.3182C54.6828 16.2234 54.655 14.7 53.3132 13.5157C52.9474 13.1927 52.8917 13.7332 52.7384 19.0774ZM16.4094 13.6792C15.5522 14.0735 15.292 15.3683 15.9646 15.8925C16.3283 16.1757 19.2199 16.3443 29.6337 16.6892C42.0913 17.1019 42.8673 17.1 43.2977 16.6575C43.9331 16.0043 43.8973 15.149 43.2133 14.6383C42.71 14.2622 40.9971 14.1531 29.8605 13.7876C20.1311 13.4683 16.9242 13.4423 16.4094 13.6792ZM15.6685 21.5762C15.4871 21.7449 15.3285 22.1925 15.316 22.5708C15.3035 22.9491 15.4321 23.4062 15.6019 23.5866C15.8339 23.8332 19.2658 24.0258 29.4139 24.3619C42.4918 24.7951 42.9262 24.7933 43.2094 24.3067C43.6194 23.6018 43.5934 23.0832 43.1237 22.5838C42.767 22.2049 41.1503 22.1024 29.3589 21.7118C19.3218 21.3794 15.916 21.3457 15.6685 21.5762ZM15.5617 29.2208C15.2622 29.3814 15.0767 29.7956 15.0585 30.3453C15.0361 31.0212 15.1787 31.2891 15.697 31.5449C16.6897 32.0351 41.4861 32.825 42.4182 32.3964C43.3435 31.9707 43.498 30.8445 42.7114 30.257C42.1881 29.866 40.599 29.7652 29.0774 29.3904C20.7154 29.1187 15.8659 29.058 15.5617 29.2208ZM22.8694 41.2082C21.5726 41.6263 20.8711 42.2156 20.1711 43.4755C19.6705 44.376 19.6102 44.9336 19.5404 49.3022L19.4632 54.133L20.1992 55.1606C20.6039 55.7256 21.4438 56.4322 22.0658 56.7309C23.1476 57.2503 23.9734 57.2962 41.1221 57.794L59.0474 58.3144L60.118 57.6277C62.1261 56.3393 62.2778 55.8759 62.4565 50.4825C62.6342 45.1148 62.5262 44.6782 60.6149 43.0344L59.6202 42.1789L41.7584 41.528C27.1355 40.9952 23.7103 40.9373 22.8694 41.2082ZM24.9538 45.1355L24.91 46.4582L26.639 46.5154L28.3679 46.5727L28.2365 50.5408L28.1051 54.5088L29.7011 54.5617L31.297 54.6145L31.4285 50.6465L31.5599 46.6784L33.2889 46.7357L35.0179 46.793L35.0617 45.4703L35.1055 44.1476L30.0516 43.9802L24.9976 43.8128L24.9538 45.1355ZM38.1542 45.0971C37.4589 46.6172 34.2339 54.3829 34.2283 54.5501C34.2254 54.6387 34.9861 54.7367 35.9187 54.7676C37.59 54.823 37.6172 54.8125 37.8003 54.0355C37.9952 53.209 38.0701 53.1911 40.9274 53.2858C41.8619 53.3167 41.9205 53.3631 42.0563 54.1764L42.1896 54.9753L45.771 55.0939L49.3521 55.2126L50.3899 53.658C50.9606 52.803 51.5003 52.1071 51.5891 52.1117C51.6779 52.1162 52.1399 52.8465 52.6154 53.7346L53.48 55.3493L55.2894 55.4092C56.925 55.4634 57.5211 55.2398 56.877 54.8138C56.7459 54.7271 55.9979 53.5683 55.2146 52.2386L53.791 49.8213L54.3371 49.0994C55.2625 47.8764 57.1754 45.1125 57.1794 44.9924C57.1815 44.9299 56.3673 44.8519 55.3704 44.8188L53.5576 44.7588L53.0558 45.7353C52.7797 46.2725 52.3619 46.9885 52.1268 47.3268L51.6998 47.9419L50.8349 46.2909L49.9704 44.64L48.2569 44.5832C47.3144 44.552 46.5413 44.587 46.5388 44.6611C46.5364 44.7352 47.1591 45.8326 47.9227 47.0997C48.6862 48.3667 49.3063 49.5422 49.3007 49.7117C49.2885 50.081 45.9366 54.8375 45.7012 54.8199C45.6109 54.813 44.7587 52.4908 43.8076 49.6593L42.0784 44.511L40.313 44.3741L38.5475 44.237L38.1542 45.0971ZM39.9925 47.6336C39.8489 47.8523 38.8861 50.5977 38.8791 50.8091C38.8776 50.8554 39.3552 50.909 39.9403 50.9284C40.7841 50.9564 41.0032 50.8678 40.9989 50.5C40.9901 49.7222 40.1649 47.3716 39.9925 47.6336ZM5.00914 49.8376C4.12062 53.0989 3.22081 57.6178 3.32581 58.2907C3.47737 59.2621 4.33769 60.8719 4.71194 60.8843C4.87234 60.8896 5.04457 58.6726 5.16379 55.073C5.26982 51.8722 5.3148 49.2519 5.26346 49.2502C5.21213 49.2485 5.09766 49.5127 5.00914 49.8376ZM33.5151 69.3935C33.8986 69.6173 35.0408 69.97 36.053 70.1775C37.6696 70.5086 38.0452 70.5025 39.1388 70.1283C39.8234 69.8938 40.3873 69.5928 40.3917 69.4592C40.3962 69.323 38.7387 69.1664 36.6089 69.1017C33.1459 68.9968 32.8785 69.0218 33.5151 69.3935Z" fill="white"/>
</svg>
